<?xml version="1.0" encoding="UTF-8" standalone="no"?>
<!-- Created with Inkscape (http://www.inkscape.org/) -->

<svg
   width="2000"
   height="2000"
   viewBox="0 0 529.16667 529.16666"
   version="1.1"
   id="svg1"
   xml:space="preserve"
   inkscape:version="1.3.2 (091e20e, 2023-11-25, custom)"
   sodipodi:docname="bg.svg"
   xmlns:inkscape="http://www.inkscape.org/namespaces/inkscape"
   xmlns:sodipodi="http://sodipodi.sourceforge.net/DTD/sodipodi-0.dtd"
   xmlns:xlink="http://www.w3.org/1999/xlink"
   xmlns="http://www.w3.org/2000/svg"
   xmlns:svg="http://www.w3.org/2000/svg"><sodipodi:namedview
     id="namedview1"
     pagecolor="#ffffff"
     bordercolor="#000000"
     borderopacity="0.25"
     inkscape:showpageshadow="2"
     inkscape:pageopacity="0.0"
     inkscape:pagecheckerboard="0"
     inkscape:deskcolor="#d1d1d1"
     inkscape:document-units="mm"
     inkscape:zoom="1.4142136"
     inkscape:cx="1849.4378"
     inkscape:cy="-2.4748737"
     inkscape:window-width="1920"
     inkscape:window-height="1017"
     inkscape:window-x="-8"
     inkscape:window-y="32"
     inkscape:window-maximized="1"
     inkscape:current-layer="layer1" /><defs
     id="defs1" /><g
     inkscape:label="Слой 1"
     inkscape:groupmode="layer"
     id="layer1"
     transform="translate(42.756229,106.79824)"><rect
       style="display:inline;fill:#a42fc1;fill-opacity:1;stroke-width:0.264583"
       id="rect3"
       width="529.16406"
       height="529.16534"
       x="-42.728142"
       y="-106.75834" /><circle
       style="fill:#ae40c9;fill-opacity:1;stroke-width:0.259766"
       id="path1"
       cy="84.63163"
       cx="129.40005"
       r="61" /><use
       x="0"
       y="0"
       xlink:href="#path1"
       id="use3"
       transform="matrix(0.70491803,0,0,0.70491803,229.82662,115.80163)" /><use
       x="0"
       y="0"
       xlink:href="#path1"
       id="use4"
       transform="matrix(0.746931,0,0,0.74691771,221.11002,-76.077171)" /><use
       x="0"
       y="0"
       xlink:href="#path1"
       id="use5"
       transform="matrix(0.66226399,0,0,0.66912836,41.952029,-152.72208)" /><use
       x="0"
       y="0"
       xlink:href="#use5"
       id="use6"
       transform="matrix(0.90832768,0,0,0.90832768,-178.41858,31.976293)" /><use
       x="0"
       y="0"
       xlink:href="#use5"
       id="use7"
       transform="matrix(1.2847543,0,0,1.2847543,-227.27501,220.04085)" /><use
       x="0"
       y="0"
       xlink:href="#use7"
       id="use8"
       transform="matrix(0.92847414,0,0,0.92847414,17.707173,248.25497)" /><use
       x="0"
       y="0"
       xlink:href="#use3"
       id="use9"
       transform="matrix(0.72093024,0,0,0.72093024,-133.71493,136.97808)" /><use
       x="0"
       y="0"
       xlink:href="#use3"
       id="use10"
       transform="matrix(0.9569283,0,0,0.9569283,-179.58255,266.05528)" /><use
       x="0"
       y="0"
       xlink:href="#use3"
       id="use11"
       transform="matrix(0.84883721,0,0,0.84883721,22.071427,165.27927)" /><use
       x="0"
       y="0"
       xlink:href="#use4"
       id="use12"
       transform="matrix(0.83159687,0,0,0.83159687,201.94353,-44.764169)" /><use
       x="0"
       y="0"
       xlink:href="#use4"
       id="use13"
       transform="matrix(1.1451777,0,0,1.1451777,101.77011,111.14053)" /><use
       x="0"
       y="0"
       xlink:href="#use3"
       id="use14"
       transform="matrix(1.1476744,0,0,1.1476744,120.86515,136.54322)" /></g></svg>
