<?xml version="1.0" encoding="UTF-8" standalone="no"?>
<!-- Created with Inkscape (http://www.inkscape.org/) -->

<svg
   width="1935.1182"
   height="1935.1182"
   viewBox="0 0 512.00001 512.00001"
   version="1.1"
   id="svg1"
   xml:space="preserve"
   sodipodi:docname="loading_circle.svg"
   inkscape:version="1.3.2 (091e20e, 2023-11-25, custom)"
   xmlns:inkscape="http://www.inkscape.org/namespaces/inkscape"
   xmlns:sodipodi="http://sodipodi.sourceforge.net/DTD/sodipodi-0.dtd"
   xmlns="http://www.w3.org/2000/svg"
   xmlns:svg="http://www.w3.org/2000/svg"><sodipodi:namedview
     id="namedview1"
     pagecolor="#ffffff"
     bordercolor="#000000"
     borderopacity="0.25"
     inkscape:showpageshadow="2"
     inkscape:pageopacity="0.0"
     inkscape:pagecheckerboard="0"
     inkscape:deskcolor="#d1d1d1"
     inkscape:document-units="px"
     inkscape:zoom="0.35355339"
     inkscape:cx="1228.9516"
     inkscape:cy="994.19213"
     inkscape:window-width="1920"
     inkscape:window-height="1017"
     inkscape:window-x="-8"
     inkscape:window-y="32"
     inkscape:window-maximized="1"
     inkscape:current-layer="layer1" /><defs
     id="defs1" /><g
     inkscape:label="Слой 1"
     inkscape:groupmode="layer"
     id="layer1"><path
       style="fill:#a42fc1;stroke-width:1.42526"
       d="m 470.34858,347.9495 c -4.09399,-0.99302 -10.45671,-7.40888 -13.74243,-13.85574 -3.17096,-6.22117 -2.98971,-9.10079 1.5393,-24.49047 10.90025,-37.03727 9.28117,-84.8798 -4.20844,-124.34322 -3.90019,-11.41036 -19.68731,-43.86238 -21.33788,-43.86238 -0.7017,0 -1.27442,-0.64965 -1.27442,-1.4457 0,-0.7962 -3.64683,-6.43158 -8.10435,-12.52586 C 406.87229,105.07444 380.70111,82.305553 355.50536,68.514037 341.97728,61.109097 326.4581,55.07039 305.39197,49.014394 291.39132,44.9895 284.83748,37.484566 284.83748,25.476905 c 0,-13.918384 9.22169,-23.2863918 22.8898,-23.2527761 19.04204,0.056621 62.10983,17.4571301 90.25038,36.4836281 54.49394,36.844651 90.55135,88.266993 107.64096,153.509273 8.96058,34.20832 8.97024,91.14946 0.0153,123.11213 -5.08313,18.15394 -6.91668,22.49213 -11.36245,26.88055 -6.17945,6.10005 -14.35989,8.06222 -23.92927,5.7394 z"
       id="path1" /><path
       style="fill:#a42fc1;stroke-width:1.42526"
       d="M 26.193011,344.83317 C 16.182204,340.17223 13.290311,335.59527 8.4566836,316.7609 -1.1333345,279.39398 -1.3007248,228.51706 8.0497878,192.93299 13.222498,173.24709 20.204249,154.52726 28.574074,137.90243 c 6.35687,-12.62633 16.784973,-29.88477 18.503513,-30.62286 0.61116,-0.26267 1.110987,-1.06059 1.110987,-1.7732 0,-1.49265 1.559283,-3.51099 14.190319,-18.379562 29.663281,-34.915613 63.459237,-59.021514 105.007957,-74.899583 25.27206,-9.6577711 40.11514,-12.63204474 48.72823,-9.7643905 6.29975,2.097391 13.04936,9.6906815 15.27469,17.1835415 3.54186,11.92606 -6.07257,25.375792 -20.58157,28.791708 -14.27018,3.35971 -29.87016,8.991182 -46.23851,16.691808 -7.28595,3.428053 -29.66975,16.938401 -31.23935,18.855575 -0.39029,0.47823 -3.90237,3.399327 -7.80474,6.495041 -32.834804,26.047062 -59.851781,68.548052 -71.041762,111.757512 -8.47129,32.71147 -8.213392,73.84097 0.670802,106.98111 3.501495,13.06163 3.638989,16.31073 0.96306,22.75598 -2.509139,6.04222 -7.151455,10.48949 -13.93326,13.34817 -6.703262,2.82555 -9.021764,2.75453 -15.990228,-0.4908 z"
       id="path2" /><path
       style="fill:#a42fc1;stroke-width:1.42526"
       d="M 231.95203,511.33815 C 186.5629,506.907 141.62244,489.20913 103.6654,460.81739 86.193601,447.74875 65.941995,427.93372 62.797027,420.83007 c -2.46231,-5.56144 -2.033388,-16.05055 0.860155,-21.04015 3.901186,-6.72612 12.588021,-12.0649 19.722045,-12.12037 8.023749,-0.0706 13.636677,2.92536 22.350733,11.89839 12.36101,12.72823 34.17226,31.00013 37.00524,31.00013 0.55796,0 2.02155,0.9114 3.25371,2.0241 3.90419,3.52743 33.06065,17.545 43.39215,20.86146 23.10712,7.41779 46.92545,11.47125 67.40377,11.47125 35.80348,0 76.81313,-11.49301 106.42689,-29.82602 2.73173,-1.69116 5.9245,-3.51439 7.0952,-4.05188 4.60412,-2.11383 19.75697,-14.60676 31.3385,-25.83754 14.83554,-14.38615 22.67273,-18.44482 31.16286,-16.13864 8.26158,2.24425 16.28218,10.05237 18.19395,17.71232 2.53391,10.15105 -0.64397,16.9544 -14.18574,30.37018 -15.3582,15.21543 -13.88483,13.92011 -26.9008,23.65583 -18.06477,13.51197 -33.48141,22.32156 -58.05618,33.17453 -10.01845,4.42468 -36.96418,12.14677 -53.21348,15.25002 -8.56639,1.63674 -56.12164,3.13678 -66.69419,2.10447 z"
       id="path3" /></g></svg>
