<svg width="120" height="110" viewBox="0 0 120 110" fill="none" xmlns="http://www.w3.org/2000/svg">
<path fill-rule="evenodd" clip-rule="evenodd" d="M28.0508 5.78699C28.9001 4.98933 28.9423 3.6462 28.0128 2.94014C25.3349 0.905902 21.915 -0.134162 18.2607 0.0138827C13.8433 0.19284 9.44522 2.09322 6.03391 5.29695C2.62259 8.50068 0.477521 12.7453 0.0705751 17.0971C-0.266076 20.6972 0.6096 24.1267 2.52766 26.8746C3.19339 27.8283 4.55248 27.8554 5.40182 27.0578C6.25117 26.2601 6.26307 24.94 5.64497 23.9555C4.3798 21.9401 3.81414 19.4946 4.05342 16.9358C4.36306 13.6246 5.99518 10.395 8.59076 7.95735C11.1863 5.51972 14.5327 4.07377 17.8938 3.93761C20.4912 3.83239 22.9329 4.51601 24.9041 5.86821C25.8672 6.52882 27.2015 6.58465 28.0508 5.78699ZM117.632 27.4307C116.985 28.3975 115.627 28.451 114.762 27.6697C113.897 26.8885 113.86 25.5685 114.458 24.5718C115.684 22.5328 116.201 20.0772 115.912 17.5238C115.537 14.2192 113.842 11.0214 111.199 8.63396C108.556 6.24651 105.182 4.86494 101.819 4.79319C99.2205 4.73775 96.7929 5.46783 94.8486 6.85718C93.8982 7.53632 92.565 7.61804 91.7002 6.8368C90.8354 6.05555 90.7672 4.71316 91.6831 3.98918C94.3205 1.90439 97.7191 0.799223 101.375 0.877229C105.795 0.971531 110.23 2.7873 113.703 5.92508C117.177 9.06286 119.405 13.2656 119.897 17.6088C120.304 21.2015 119.496 24.6467 117.632 27.4307ZM96.0462 93.0365C104.853 83.9749 110.266 71.6665 110.266 58.1083C110.266 30.261 87.4297 7.68627 59.2591 7.68627C31.0886 7.68627 8.25189 30.261 8.25189 58.1083C8.25189 85.9556 31.0886 108.53 59.2591 108.53C70.5434 108.53 80.9717 104.908 89.4193 98.7757C89.556 99.1404 89.7444 99.5039 89.9897 99.8609C91.6799 102.321 95.2314 102.622 97.3222 100.482C99.413 98.3421 98.9856 94.8439 96.4397 93.2595C96.3091 93.1782 96.1778 93.1039 96.0462 93.0365ZM59.2591 105.182C32.9591 105.182 11.6388 84.1066 11.6388 58.1083C11.6388 32.11 32.9591 11.0343 59.2591 11.0343C85.5592 11.0343 106.88 32.11 106.88 58.1083C106.88 84.1066 85.5592 105.182 59.2591 105.182Z" fill="#E09FF1"/>
<ellipse cx="40" cy="57.5" rx="9" ry="9.5" fill="#E09FF1"/>
<circle cx="77.5" cy="57.5" r="9.5" fill="#E09FF1"/>
<ellipse cx="43" cy="54.5" rx="3" ry="2.5" fill="white"/>
<ellipse cx="75" cy="54.5" rx="3" ry="2.5" fill="white"/>
<path d="M30.3832 46.8085C32.6222 43.8755 34.1859 42.7332 37.6234 41.6265" stroke="#E09FF1" stroke-width="3" stroke-linecap="round"/>
<path d="M81.6435 41.9041C85.1511 43.1203 86.7275 44.2453 88.8397 47.1456" stroke="#E09FF1" stroke-width="3" stroke-linecap="round"/>
<path d="M74 81.0594C74 87.4353 67.2843 95 59 95C50.7157 95 44 87.4353 44 81.0594C44 74.6835 50.7157 73 59 73C67.2843 73 74 74.6835 74 81.0594Z" fill="#E09FF1"/>
<path fill-rule="evenodd" clip-rule="evenodd" d="M28.0508 6.78699C28.9001 5.98933 28.9423 4.6462 28.0128 3.94014C25.3349 1.9059 21.915 0.865838 18.2607 1.01388C13.8433 1.19284 9.44522 3.09322 6.03391 6.29695C2.62259 9.50068 0.477521 13.7453 0.0705751 18.0971C-0.266076 21.6972 0.6096 25.1267 2.52766 27.8746C3.19339 28.8283 4.55248 28.8554 5.40182 28.0578C6.25117 27.2601 6.26307 25.94 5.64497 24.9555C4.3798 22.9401 3.81414 20.4946 4.05342 17.9358C4.36306 14.6246 5.99518 11.395 8.59076 8.95735C11.1863 6.51972 14.5327 5.07377 17.8938 4.93761C20.4912 4.83239 22.9329 5.51601 24.9041 6.86821C25.8672 7.52882 27.2015 7.58465 28.0508 6.78699ZM117.632 28.4307C116.985 29.3975 115.627 29.451 114.762 28.6697C113.897 27.8885 113.86 26.5685 114.458 25.5718C115.684 23.5328 116.201 21.0772 115.912 18.5238C115.537 15.2192 113.842 12.0214 111.199 9.63396C108.556 7.24651 105.182 5.86494 101.819 5.79319C99.2205 5.73775 96.7929 6.46783 94.8486 7.85718C93.8982 8.53632 92.565 8.61804 91.7002 7.8368C90.8354 7.05555 90.7672 5.71316 91.6831 4.98918C94.3205 2.90439 97.7191 1.79922 101.375 1.87723C105.795 1.97153 110.23 3.7873 113.703 6.92508C117.177 10.0629 119.405 14.2656 119.897 18.6088C120.304 22.2015 119.496 25.6467 117.632 28.4307ZM96.0462 94.0365C104.853 84.9749 110.266 72.6665 110.266 59.1083C110.266 31.261 87.4297 8.68627 59.2591 8.68627C31.0886 8.68627 8.25189 31.261 8.25189 59.1083C8.25189 86.9556 31.0886 109.53 59.2591 109.53C70.5434 109.53 80.9717 105.908 89.4193 99.7757C89.556 100.14 89.7444 100.504 89.9897 100.861C91.6799 103.321 95.2314 103.622 97.3222 101.482C99.413 99.3421 98.9856 95.8439 96.4397 94.2595C96.3091 94.1782 96.1778 94.1039 96.0462 94.0365ZM59.2591 106.182C32.9591 106.182 11.6388 85.1066 11.6388 59.1083C11.6388 33.11 32.9591 12.0343 59.2591 12.0343C85.5592 12.0343 106.88 33.11 106.88 59.1083C106.88 85.1066 85.5592 106.182 59.2591 106.182Z" fill="#691C7C"/>
<ellipse cx="40" cy="58.5" rx="9" ry="9.5" fill="#691C7C"/>
<circle cx="77.5" cy="58.5" r="9.5" fill="#691C7C"/>
<ellipse cx="43" cy="55.5" rx="3" ry="2.5" fill="white"/>
<ellipse cx="75" cy="55.5" rx="3" ry="2.5" fill="white"/>
<path d="M30.3832 47.8085C32.6222 44.8755 34.1859 43.7332 37.6234 42.6265" stroke="#691C7C" stroke-width="3"/>
<path d="M81.6435 42.9041C85.1511 44.1203 86.7275 45.2453 88.8397 48.1456" stroke="#691C7C" stroke-width="3"/>
<path d="M74 82.0594C74 88.4353 67.2843 96 59 96C50.7157 96 44 88.4353 44 82.0594C44 75.6835 50.7157 74 59 74C67.2843 74 74 75.6835 74 82.0594Z" fill="#691C7C"/>
<path fill-rule="evenodd" clip-rule="evenodd" d="M28.0508 6.78699C28.9001 5.98933 28.9423 4.6462 28.0128 3.94014C25.3349 1.9059 21.915 0.865838 18.2607 1.01388C13.8433 1.19284 9.44522 3.09322 6.03391 6.29695C2.62259 9.50068 0.477521 13.7453 0.0705751 18.0971C-0.266076 21.6972 0.6096 25.1267 2.52766 27.8746C3.19339 28.8283 4.55248 28.8554 5.40182 28.0578C6.25117 27.2601 6.26307 25.94 5.64497 24.9555C4.3798 22.9401 3.81414 20.4946 4.05342 17.9358C4.36306 14.6246 5.99518 11.395 8.59076 8.95735C11.1863 6.51972 14.5327 5.07377 17.8938 4.93761C20.4912 4.83239 22.9329 5.51601 24.9041 6.86821C25.8672 7.52882 27.2015 7.58465 28.0508 6.78699ZM117.632 28.4307C116.985 29.3975 115.627 29.451 114.762 28.6697C113.897 27.8885 113.86 26.5685 114.458 25.5718C115.684 23.5328 116.201 21.0772 115.912 18.5238C115.537 15.2192 113.842 12.0214 111.199 9.63396C108.556 7.24651 105.182 5.86494 101.819 5.79319C99.2205 5.73775 96.7929 6.46783 94.8486 7.85718C93.8982 8.53632 92.565 8.61804 91.7002 7.8368C90.8354 7.05555 90.7672 5.71316 91.6831 4.98918C94.3205 2.90439 97.7191 1.79922 101.375 1.87723C105.795 1.97153 110.23 3.7873 113.703 6.92508C117.177 10.0629 119.405 14.2656 119.897 18.6088C120.304 22.2015 119.496 25.6467 117.632 28.4307ZM96.0462 94.0365C104.853 84.9749 110.266 72.6665 110.266 59.1083C110.266 31.261 87.4297 8.68627 59.2591 8.68627C31.0886 8.68627 8.25189 31.261 8.25189 59.1083C8.25189 86.9556 31.0886 109.53 59.2591 109.53C70.5434 109.53 80.9717 105.908 89.4193 99.7757C89.556 100.14 89.7444 100.504 89.9897 100.861C91.6799 103.321 95.2314 103.622 97.3222 101.482C99.413 99.3421 98.9856 95.8439 96.4397 94.2595C96.3091 94.1782 96.1778 94.1039 96.0462 94.0365ZM59.2591 106.182C32.9591 106.182 11.6388 85.1066 11.6388 59.1083C11.6388 33.11 32.9591 12.0343 59.2591 12.0343C85.5592 12.0343 106.88 33.11 106.88 59.1083C106.88 85.1066 85.5592 106.182 59.2591 106.182Z" fill="#691C7C"/>
<ellipse cx="40" cy="58.5" rx="9" ry="9.5" fill="#691C7C"/>
<circle cx="77.5" cy="58.5" r="9.5" fill="#691C7C"/>
<ellipse cx="43" cy="55.5" rx="3" ry="2.5" fill="white"/>
<ellipse cx="75" cy="55.5" rx="3" ry="2.5" fill="white"/>
<path d="M30.3832 47.8085C32.6222 44.8755 34.1859 43.7332 37.6234 42.6265" stroke="#691C7C" stroke-width="3"/>
<path d="M81.6435 42.9041C85.1511 44.1203 86.7275 45.2453 88.8397 48.1456" stroke="#691C7C" stroke-width="3"/>
<path d="M74 82.0594C74 88.4353 67.2843 96 59 96C50.7157 96 44 88.4353 44 82.0594C44 75.6835 50.7157 74 59 74C67.2843 74 74 75.6835 74 82.0594Z" fill="#691C7C"/>
<path fill-rule="evenodd" clip-rule="evenodd" d="M28.0508 6.78699C28.9001 5.98933 28.9423 4.6462 28.0128 3.94014C25.3349 1.9059 21.915 0.865838 18.2607 1.01388C13.8433 1.19284 9.44522 3.09322 6.03391 6.29695C2.62259 9.50068 0.477521 13.7453 0.0705751 18.0971C-0.266076 21.6972 0.6096 25.1267 2.52766 27.8746C3.19339 28.8283 4.55248 28.8554 5.40182 28.0578C6.25117 27.2601 6.26307 25.94 5.64497 24.9555C4.3798 22.9401 3.81414 20.4946 4.05342 17.9358C4.36306 14.6246 5.99518 11.395 8.59076 8.95735C11.1863 6.51972 14.5327 5.07377 17.8938 4.93761C20.4912 4.83239 22.9329 5.51601 24.9041 6.86821C25.8672 7.52882 27.2015 7.58465 28.0508 6.78699ZM117.632 28.4307C116.985 29.3975 115.627 29.451 114.762 28.6697C113.897 27.8885 113.86 26.5685 114.458 25.5718C115.684 23.5328 116.201 21.0772 115.912 18.5238C115.537 15.2192 113.842 12.0214 111.199 9.63396C108.556 7.24651 105.182 5.86494 101.819 5.79319C99.2205 5.73775 96.7929 6.46783 94.8486 7.85718C93.8982 8.53632 92.565 8.61804 91.7002 7.8368C90.8354 7.05555 90.7672 5.71316 91.6831 4.98918C94.3205 2.90439 97.7191 1.79922 101.375 1.87723C105.795 1.97153 110.23 3.7873 113.703 6.92508C117.177 10.0629 119.405 14.2656 119.897 18.6088C120.304 22.2015 119.496 25.6467 117.632 28.4307ZM96.0462 94.0365C104.853 84.9749 110.266 72.6665 110.266 59.1083C110.266 31.261 87.4297 8.68627 59.2591 8.68627C31.0886 8.68627 8.25189 31.261 8.25189 59.1083C8.25189 86.9556 31.0886 109.53 59.2591 109.53C70.5434 109.53 80.9717 105.908 89.4193 99.7757C89.556 100.14 89.7444 100.504 89.9897 100.861C91.6799 103.321 95.2314 103.622 97.3222 101.482C99.413 99.3421 98.9856 95.8439 96.4397 94.2595C96.3091 94.1782 96.1778 94.1039 96.0462 94.0365ZM59.2591 106.182C32.9591 106.182 11.6388 85.1066 11.6388 59.1083C11.6388 33.11 32.9591 12.0343 59.2591 12.0343C85.5592 12.0343 106.88 33.11 106.88 59.1083C106.88 85.1066 85.5592 106.182 59.2591 106.182Z" fill="#691C7C"/>
<ellipse cx="40" cy="58.5" rx="9" ry="9.5" fill="#691C7C"/>
<circle cx="77.5" cy="58.5" r="9.5" fill="#691C7C"/>
<ellipse cx="43" cy="55.5" rx="3" ry="2.5" fill="white"/>
<ellipse cx="75" cy="55.5" rx="3" ry="2.5" fill="white"/>
<path d="M30.3832 47.8085C32.6222 44.8755 34.1859 43.7332 37.6234 42.6265" stroke="#691C7C" stroke-width="3"/>
<path d="M81.6435 42.9041C85.1511 44.1203 86.7275 45.2453 88.8397 48.1456" stroke="#691C7C" stroke-width="3"/>
<path d="M74 82.0594C74 88.4353 67.2843 96 59 96C50.7157 96 44 88.4353 44 82.0594C44 75.6835 50.7157 74 59 74C67.2843 74 74 75.6835 74 82.0594Z" fill="#691C7C"/>
<path fill-rule="evenodd" clip-rule="evenodd" d="M28.0508 6.78699C28.9001 5.98933 28.9423 4.6462 28.0128 3.94014C25.3349 1.9059 21.915 0.865838 18.2607 1.01388C13.8433 1.19284 9.44522 3.09322 6.03391 6.29695C2.62259 9.50068 0.477521 13.7453 0.0705751 18.0971C-0.266076 21.6972 0.6096 25.1267 2.52766 27.8746C3.19339 28.8283 4.55248 28.8554 5.40182 28.0578C6.25117 27.2601 6.26307 25.94 5.64497 24.9555C4.3798 22.9401 3.81414 20.4946 4.05342 17.9358C4.36306 14.6246 5.99518 11.395 8.59076 8.95735C11.1863 6.51972 14.5327 5.07377 17.8938 4.93761C20.4912 4.83239 22.9329 5.51601 24.9041 6.86821C25.8672 7.52882 27.2015 7.58465 28.0508 6.78699ZM117.632 28.4307C116.985 29.3975 115.627 29.451 114.762 28.6697C113.897 27.8885 113.86 26.5685 114.458 25.5718C115.684 23.5328 116.201 21.0772 115.912 18.5238C115.537 15.2192 113.842 12.0214 111.199 9.63396C108.556 7.24651 105.182 5.86494 101.819 5.79319C99.2205 5.73775 96.7929 6.46783 94.8486 7.85718C93.8982 8.53632 92.565 8.61804 91.7002 7.8368C90.8354 7.05555 90.7672 5.71316 91.6831 4.98918C94.3205 2.90439 97.7191 1.79922 101.375 1.87723C105.795 1.97153 110.23 3.7873 113.703 6.92508C117.177 10.0629 119.405 14.2656 119.897 18.6088C120.304 22.2015 119.496 25.6467 117.632 28.4307ZM96.0462 94.0365C104.853 84.9749 110.266 72.6665 110.266 59.1083C110.266 31.261 87.4297 8.68627 59.2591 8.68627C31.0886 8.68627 8.25189 31.261 8.25189 59.1083C8.25189 86.9556 31.0886 109.53 59.2591 109.53C70.5434 109.53 80.9717 105.908 89.4193 99.7757C89.556 100.14 89.7444 100.504 89.9897 100.861C91.6799 103.321 95.2314 103.622 97.3222 101.482C99.413 99.3421 98.9856 95.8439 96.4397 94.2595C96.3091 94.1782 96.1778 94.1039 96.0462 94.0365ZM59.2591 106.182C32.9591 106.182 11.6388 85.1066 11.6388 59.1083C11.6388 33.11 32.9591 12.0343 59.2591 12.0343C85.5592 12.0343 106.88 33.11 106.88 59.1083C106.88 85.1066 85.5592 106.182 59.2591 106.182Z" fill="#691C7C"/>
<ellipse cx="40" cy="58.5" rx="9" ry="9.5" fill="#691C7C"/>
<circle cx="77.5" cy="58.5" r="9.5" fill="#691C7C"/>
<ellipse cx="43" cy="55.5" rx="3" ry="2.5" fill="white"/>
<ellipse cx="75" cy="55.5" rx="3" ry="2.5" fill="white"/>
<path d="M30.3832 47.8085C32.6222 44.8755 34.1859 43.7332 37.6234 42.6265" stroke="#691C7C" stroke-width="3"/>
<path d="M81.6435 42.9041C85.1511 44.1203 86.7275 45.2453 88.8397 48.1456" stroke="#691C7C" stroke-width="3"/>
<path d="M74 82.0594C74 88.4353 67.2843 96 59 96C50.7157 96 44 88.4353 44 82.0594C44 75.6835 50.7157 74 59 74C67.2843 74 74 75.6835 74 82.0594Z" fill="#691C7C"/>
<path fill-rule="evenodd" clip-rule="evenodd" d="M28.0508 6.78699C28.9001 5.98933 28.9423 4.6462 28.0128 3.94014C25.3349 1.9059 21.915 0.865838 18.2607 1.01388C13.8433 1.19284 9.44522 3.09322 6.03391 6.29695C2.62259 9.50068 0.477521 13.7453 0.0705751 18.0971C-0.266076 21.6972 0.6096 25.1267 2.52766 27.8746C3.19339 28.8283 4.55248 28.8554 5.40182 28.0578C6.25117 27.2601 6.26307 25.94 5.64497 24.9555C4.3798 22.9401 3.81414 20.4946 4.05342 17.9358C4.36306 14.6246 5.99518 11.395 8.59076 8.95735C11.1863 6.51972 14.5327 5.07377 17.8938 4.93761C20.4912 4.83239 22.9329 5.51601 24.9041 6.86821C25.8672 7.52882 27.2015 7.58465 28.0508 6.78699ZM117.632 28.4307C116.985 29.3975 115.627 29.451 114.762 28.6697C113.897 27.8885 113.86 26.5685 114.458 25.5718C115.684 23.5328 116.201 21.0772 115.912 18.5238C115.537 15.2192 113.842 12.0214 111.199 9.63396C108.556 7.24651 105.182 5.86494 101.819 5.79319C99.2205 5.73775 96.7929 6.46783 94.8486 7.85718C93.8982 8.53632 92.565 8.61804 91.7002 7.8368C90.8354 7.05555 90.7672 5.71316 91.6831 4.98918C94.3205 2.90439 97.7191 1.79922 101.375 1.87723C105.795 1.97153 110.23 3.7873 113.703 6.92508C117.177 10.0629 119.405 14.2656 119.897 18.6088C120.304 22.2015 119.496 25.6467 117.632 28.4307ZM96.0462 94.0365C104.853 84.9749 110.266 72.6665 110.266 59.1083C110.266 31.261 87.4297 8.68627 59.2591 8.68627C31.0886 8.68627 8.25189 31.261 8.25189 59.1083C8.25189 86.9556 31.0886 109.53 59.2591 109.53C70.5434 109.53 80.9717 105.908 89.4193 99.7757C89.556 100.14 89.7444 100.504 89.9897 100.861C91.6799 103.321 95.2314 103.622 97.3222 101.482C99.413 99.3421 98.9856 95.8439 96.4397 94.2595C96.3091 94.1782 96.1778 94.1039 96.0462 94.0365ZM59.2591 106.182C32.9591 106.182 11.6388 85.1066 11.6388 59.1083C11.6388 33.11 32.9591 12.0343 59.2591 12.0343C85.5592 12.0343 106.88 33.11 106.88 59.1083C106.88 85.1066 85.5592 106.182 59.2591 106.182Z" fill="white"/>
<ellipse cx="40" cy="58.5" rx="9" ry="9.5" fill="white"/>
<circle cx="77.5" cy="58.5" r="9.5" fill="white"/>
<ellipse cx="43" cy="55.5" rx="3" ry="2.5" fill="#A42FC1"/>
<ellipse cx="75" cy="55.5" rx="3" ry="2.5" fill="#A42FC1"/>
<path d="M30.3832 47.8085C32.6222 44.8755 34.1859 43.7332 37.6234 42.6265" stroke="white" stroke-width="3" stroke-linecap="round"/>
<path d="M81.6435 42.9041C85.1511 44.1203 86.7275 45.2453 88.8397 48.1456" stroke="white" stroke-width="3" stroke-linecap="round"/>
<path d="M74 82.0594C74 88.4353 67.2843 96 59 96C50.7157 96 44 88.4353 44 82.0594C44 75.6835 50.7157 74 59 74C67.2843 74 74 75.6835 74 82.0594Z" fill="white"/>
</svg>
