<svg width="577" height="1577" viewBox="0 0 577 1577" fill="none" xmlns="http://www.w3.org/2000/svg">
<g filter="url(#filter0_dddd_1175_186)">
<rect x="8" y="2" width="561" height="1547" rx="10" fill="white"/>
</g>
<g filter="url(#filter1_bdddd_1175_186)">
<rect x="128" y="1437" width="150" height="49" rx="10" fill="white"/>
<rect x="128.5" y="1437.5" width="149" height="48" rx="9.5" stroke="#A42FC1"/>
</g>
<g filter="url(#filter2_bdddd_1175_186)">
<rect x="310" y="1437" width="150" height="49" rx="10" fill="white"/>
<rect x="310.5" y="1437.5" width="149" height="48" rx="9.5" stroke="#A42FC1"/>
</g>
<path d="M180.915 1470H177.291V1462.61H170.499V1470H166.875V1452.86H170.499V1459.58H177.291V1452.86H180.915V1470ZM190.314 1456.63C192.074 1456.63 193.418 1457.02 194.346 1457.78C195.29 1458.54 195.762 1459.7 195.762 1461.26V1470H193.266L192.57 1468.22H192.474C192.106 1468.69 191.722 1469.07 191.322 1469.38C190.938 1469.68 190.49 1469.9 189.978 1470.02C189.482 1470.17 188.866 1470.24 188.13 1470.24C187.362 1470.24 186.666 1470.1 186.042 1469.81C185.434 1469.5 184.954 1469.05 184.602 1468.44C184.25 1467.82 184.074 1467.03 184.074 1466.09C184.074 1464.7 184.562 1463.67 185.538 1463.02C186.514 1462.34 187.978 1461.98 189.93 1461.91L192.21 1461.84V1461.26C192.21 1460.58 192.026 1460.07 191.658 1459.75C191.306 1459.43 190.81 1459.27 190.17 1459.27C189.53 1459.27 188.906 1459.37 188.298 1459.56C187.69 1459.74 187.082 1459.96 186.474 1460.23L185.298 1457.81C186.002 1457.44 186.778 1457.15 187.626 1456.94C188.49 1456.74 189.386 1456.63 190.314 1456.63ZM190.818 1463.98C189.666 1464.01 188.866 1464.22 188.418 1464.6C187.97 1464.98 187.746 1465.49 187.746 1466.11C187.746 1466.66 187.906 1467.05 188.226 1467.29C188.546 1467.51 188.962 1467.62 189.474 1467.62C190.242 1467.62 190.89 1467.4 191.418 1466.95C191.946 1466.49 192.21 1465.84 192.21 1465.01V1463.93L190.818 1463.98ZM204.199 1456.66C205.143 1456.66 206.023 1456.78 206.839 1457.04C207.671 1457.28 208.335 1457.66 208.831 1458.17C209.343 1458.68 209.599 1459.34 209.599 1460.14C209.599 1460.92 209.359 1461.54 208.879 1462.01C208.415 1462.47 207.783 1462.81 206.983 1463.02V1463.14C207.543 1463.26 208.047 1463.45 208.495 1463.69C208.943 1463.91 209.295 1464.22 209.551 1464.62C209.823 1465.01 209.959 1465.53 209.959 1466.18C209.959 1466.9 209.727 1467.58 209.263 1468.2C208.815 1468.81 208.111 1469.3 207.151 1469.69C206.207 1470.06 204.991 1470.24 203.503 1470.24C202.799 1470.24 202.135 1470.21 201.511 1470.14C200.887 1470.08 200.319 1469.99 199.807 1469.88C199.295 1469.75 198.847 1469.6 198.463 1469.42V1466.47C199.007 1466.73 199.671 1466.96 200.455 1467.17C201.255 1467.38 202.103 1467.48 202.999 1467.48C203.655 1467.48 204.239 1467.43 204.751 1467.34C205.279 1467.24 205.695 1467.08 205.999 1466.86C206.319 1466.63 206.479 1466.34 206.479 1465.97C206.479 1465.62 206.343 1465.33 206.071 1465.1C205.799 1464.86 205.391 1464.69 204.847 1464.58C204.303 1464.46 203.607 1464.41 202.759 1464.41H201.367V1461.94H202.687C203.871 1461.94 204.783 1461.84 205.423 1461.65C206.079 1461.46 206.407 1461.1 206.407 1460.57C206.407 1460.15 206.199 1459.84 205.783 1459.63C205.367 1459.41 204.687 1459.3 203.743 1459.3C203.119 1459.3 202.439 1459.37 201.703 1459.51C200.967 1459.66 200.271 1459.86 199.615 1460.14L198.559 1457.64C199.311 1457.35 200.135 1457.12 201.031 1456.94C201.927 1456.75 202.983 1456.66 204.199 1456.66ZM218.111 1456.63C219.871 1456.63 221.215 1457.02 222.143 1457.78C223.087 1458.54 223.559 1459.7 223.559 1461.26V1470H221.063L220.367 1468.22H220.271C219.903 1468.69 219.519 1469.07 219.119 1469.38C218.735 1469.68 218.287 1469.9 217.775 1470.02C217.279 1470.17 216.663 1470.24 215.927 1470.24C215.159 1470.24 214.463 1470.1 213.839 1469.81C213.231 1469.5 212.751 1469.05 212.399 1468.44C212.047 1467.82 211.871 1467.03 211.871 1466.09C211.871 1464.7 212.359 1463.67 213.335 1463.02C214.311 1462.34 215.775 1461.98 217.727 1461.91L220.007 1461.84V1461.26C220.007 1460.58 219.823 1460.07 219.455 1459.75C219.103 1459.43 218.607 1459.27 217.967 1459.27C217.327 1459.27 216.703 1459.37 216.095 1459.56C215.487 1459.74 214.879 1459.96 214.271 1460.23L213.095 1457.81C213.799 1457.44 214.575 1457.15 215.423 1456.94C216.287 1456.74 217.183 1456.63 218.111 1456.63ZM218.615 1463.98C217.463 1464.01 216.663 1464.22 216.215 1464.6C215.767 1464.98 215.543 1465.49 215.543 1466.11C215.543 1466.66 215.703 1467.05 216.023 1467.29C216.343 1467.51 216.759 1467.62 217.271 1467.62C218.039 1467.62 218.687 1467.4 219.215 1466.95C219.743 1466.49 220.007 1465.84 220.007 1465.01V1463.93L218.615 1463.98ZM239.004 1456.9V1467.38H240.924V1474.7H237.708V1470H228.9V1474.7H225.684V1467.38H226.788C227.364 1466.5 227.852 1465.5 228.252 1464.38C228.652 1463.25 228.972 1462.04 229.212 1460.76C229.452 1459.48 229.628 1458.19 229.74 1456.9H239.004ZM232.74 1459.58C232.612 1460.54 232.452 1461.48 232.26 1462.39C232.068 1463.29 231.828 1464.15 231.54 1464.98C231.268 1465.82 230.932 1466.62 230.532 1467.38H235.428V1459.58H232.74Z" fill="#A42FC1"/>
<path d="M330.019 1470V1452.86H343.579V1470H339.955V1455.89H333.643V1470H330.019ZM359.518 1463.42C359.518 1464.51 359.366 1465.48 359.062 1466.33C358.774 1467.18 358.35 1467.9 357.79 1468.49C357.246 1469.06 356.582 1469.5 355.798 1469.81C355.014 1470.1 354.126 1470.24 353.134 1470.24C352.222 1470.24 351.374 1470.1 350.59 1469.81C349.822 1469.5 349.158 1469.06 348.598 1468.49C348.038 1467.9 347.598 1467.18 347.278 1466.33C346.974 1465.48 346.822 1464.51 346.822 1463.42C346.822 1461.97 347.078 1460.74 347.59 1459.75C348.102 1458.74 348.838 1457.98 349.798 1457.45C350.758 1456.92 351.894 1456.66 353.206 1456.66C354.438 1456.66 355.526 1456.92 356.47 1457.45C357.414 1457.98 358.158 1458.74 358.702 1459.75C359.246 1460.74 359.518 1461.97 359.518 1463.42ZM350.47 1463.42C350.47 1464.29 350.558 1465.02 350.734 1465.61C350.926 1466.18 351.222 1466.62 351.622 1466.93C352.022 1467.22 352.542 1467.36 353.182 1467.36C353.822 1467.36 354.334 1467.22 354.718 1466.93C355.118 1466.62 355.406 1466.18 355.582 1465.61C355.774 1465.02 355.87 1464.29 355.87 1463.42C355.87 1462.56 355.774 1461.84 355.582 1461.26C355.406 1460.69 355.118 1460.26 354.718 1459.97C354.318 1459.68 353.798 1459.54 353.158 1459.54C352.214 1459.54 351.526 1459.86 351.094 1460.52C350.678 1461.16 350.47 1462.13 350.47 1463.42ZM367.874 1456.66C369.09 1456.66 370.13 1456.89 370.994 1457.35C371.874 1457.82 372.554 1458.49 373.034 1459.37C373.514 1460.25 373.754 1461.33 373.754 1462.61V1464.34H365.306C365.338 1465.34 365.634 1466.14 366.194 1466.71C366.77 1467.29 367.562 1467.58 368.57 1467.58C369.418 1467.58 370.186 1467.5 370.874 1467.34C371.562 1467.16 372.274 1466.9 373.01 1466.54V1469.3C372.37 1469.62 371.69 1469.86 370.97 1470C370.266 1470.16 369.41 1470.24 368.402 1470.24C367.09 1470.24 365.93 1470 364.922 1469.52C363.914 1469.02 363.122 1468.28 362.546 1467.29C361.97 1466.3 361.682 1465.05 361.682 1463.54C361.682 1462.01 361.938 1460.74 362.45 1459.73C362.978 1458.7 363.706 1457.94 364.634 1457.42C365.562 1456.91 366.642 1456.66 367.874 1456.66ZM367.898 1459.2C367.21 1459.2 366.634 1459.42 366.17 1459.87C365.722 1460.32 365.458 1461.02 365.378 1461.96H370.394C370.394 1461.43 370.298 1460.96 370.106 1460.54C369.93 1460.13 369.658 1459.8 369.29 1459.56C368.922 1459.32 368.458 1459.2 367.898 1459.2ZM379.341 1463.3L375.117 1456.9H379.173L381.717 1461.07L384.285 1456.9H388.341L384.069 1463.3L388.533 1470H384.477L381.717 1465.51L378.957 1470H374.901L379.341 1463.3ZM395.904 1456.63C397.664 1456.63 399.008 1457.02 399.936 1457.78C400.88 1458.54 401.352 1459.7 401.352 1461.26V1470H398.856L398.16 1468.22H398.064C397.696 1468.69 397.312 1469.07 396.912 1469.38C396.528 1469.68 396.08 1469.9 395.568 1470.02C395.072 1470.17 394.456 1470.24 393.72 1470.24C392.952 1470.24 392.256 1470.1 391.632 1469.81C391.024 1469.5 390.544 1469.05 390.192 1468.44C389.84 1467.82 389.664 1467.03 389.664 1466.09C389.664 1464.7 390.152 1463.67 391.128 1463.02C392.104 1462.34 393.568 1461.98 395.52 1461.91L397.8 1461.84V1461.26C397.8 1460.58 397.616 1460.07 397.248 1459.75C396.896 1459.43 396.4 1459.27 395.76 1459.27C395.12 1459.27 394.496 1459.37 393.888 1459.56C393.28 1459.74 392.672 1459.96 392.064 1460.23L390.888 1457.81C391.592 1457.44 392.368 1457.15 393.216 1456.94C394.08 1456.74 394.976 1456.63 395.904 1456.63ZM396.408 1463.98C395.256 1464.01 394.456 1464.22 394.008 1464.6C393.56 1464.98 393.336 1465.49 393.336 1466.11C393.336 1466.66 393.496 1467.05 393.816 1467.29C394.136 1467.51 394.552 1467.62 395.064 1467.62C395.832 1467.62 396.48 1467.4 397.008 1466.95C397.536 1466.49 397.8 1465.84 397.8 1465.01V1463.93L396.408 1463.98ZM416.749 1470H413.173V1459.58H409.885C409.725 1461.5 409.525 1463.14 409.285 1464.5C409.061 1465.85 408.773 1466.94 408.421 1467.79C408.085 1468.64 407.653 1469.26 407.125 1469.66C406.597 1470.05 405.949 1470.24 405.181 1470.24C404.765 1470.24 404.389 1470.21 404.053 1470.14C403.717 1470.08 403.413 1469.98 403.141 1469.86V1467C403.317 1467.06 403.501 1467.12 403.693 1467.17C403.885 1467.22 404.085 1467.24 404.293 1467.24C404.517 1467.24 404.725 1467.15 404.917 1466.98C405.125 1466.8 405.317 1466.49 405.493 1466.04C405.685 1465.59 405.861 1464.98 406.021 1464.19C406.181 1463.41 406.325 1462.42 406.453 1461.24C406.597 1460.04 406.725 1458.59 406.837 1456.9H416.749V1470ZM423.937 1462.08C423.937 1462.35 423.921 1462.69 423.889 1463.09C423.873 1463.49 423.849 1463.9 423.817 1464.31C423.801 1464.73 423.777 1465.1 423.745 1465.42C423.713 1465.74 423.689 1465.96 423.673 1466.09L429.721 1456.9H434.017V1470H430.561V1464.77C430.561 1464.34 430.577 1463.86 430.609 1463.35C430.641 1462.82 430.673 1462.34 430.705 1461.89C430.753 1461.42 430.785 1461.07 430.801 1460.83L424.777 1470H420.481V1456.9H423.937V1462.08ZM439.123 1466.11C438.803 1466.11 438.523 1466 438.283 1465.78C438.059 1465.54 437.947 1465.26 437.947 1464.94V1455.14C437.947 1454.82 438.059 1454.54 438.283 1454.3C438.523 1454.06 438.803 1453.94 439.123 1453.94C439.459 1453.94 439.739 1454.06 439.963 1454.3C440.187 1454.54 440.299 1454.82 440.299 1455.14V1464.94C440.299 1465.26 440.187 1465.54 439.963 1465.78C439.739 1466 439.459 1466.11 439.123 1466.11ZM438.931 1470.14C438.563 1470.14 438.259 1470.02 438.019 1469.76C437.795 1469.5 437.683 1469.18 437.683 1468.8C437.683 1468.4 437.827 1468.04 438.115 1467.72C438.403 1467.4 438.731 1467.24 439.099 1467.24C439.467 1467.24 439.763 1467.38 439.987 1467.65C440.227 1467.9 440.347 1468.22 440.347 1468.58C440.347 1469.02 440.203 1469.38 439.915 1469.69C439.627 1469.99 439.299 1470.14 438.931 1470.14Z" fill="#A42FC1"/>
<defs>
<filter id="filter0_dddd_1175_186" x="0" y="0" width="577" height="1577" filterUnits="userSpaceOnUse" color-interpolation-filters="sRGB">
<feFlood flood-opacity="0" result="BackgroundImageFix"/>
<feColorMatrix in="SourceAlpha" type="matrix" values="0 0 0 0 0 0 0 0 0 0 0 0 0 0 0 0 0 0 127 0" result="hardAlpha"/>
<feOffset dy="1"/>
<feGaussianBlur stdDeviation="1.5"/>
<feColorMatrix type="matrix" values="0 0 0 0 0.866667 0 0 0 0 0.72549 0 0 0 0 0.87451 0 0 0 0.21 0"/>
<feBlend mode="normal" in2="BackgroundImageFix" result="effect1_dropShadow_1175_186"/>
<feColorMatrix in="SourceAlpha" type="matrix" values="0 0 0 0 0 0 0 0 0 0 0 0 0 0 0 0 0 0 127 0" result="hardAlpha"/>
<feOffset dy="5"/>
<feGaussianBlur stdDeviation="2.5"/>
<feColorMatrix type="matrix" values="0 0 0 0 0.866667 0 0 0 0 0.72549 0 0 0 0 0.87451 0 0 0 0.18 0"/>
<feBlend mode="normal" in2="effect1_dropShadow_1175_186" result="effect2_dropShadow_1175_186"/>
<feColorMatrix in="SourceAlpha" type="matrix" values="0 0 0 0 0 0 0 0 0 0 0 0 0 0 0 0 0 0 127 0" result="hardAlpha"/>
<feOffset dy="11"/>
<feGaussianBlur stdDeviation="3.5"/>
<feColorMatrix type="matrix" values="0 0 0 0 0.866667 0 0 0 0 0.72549 0 0 0 0 0.87451 0 0 0 0.11 0"/>
<feBlend mode="normal" in2="effect2_dropShadow_1175_186" result="effect3_dropShadow_1175_186"/>
<feColorMatrix in="SourceAlpha" type="matrix" values="0 0 0 0 0 0 0 0 0 0 0 0 0 0 0 0 0 0 127 0" result="hardAlpha"/>
<feOffset dy="20"/>
<feGaussianBlur stdDeviation="4"/>
<feColorMatrix type="matrix" values="0 0 0 0 0.866667 0 0 0 0 0.72549 0 0 0 0 0.87451 0 0 0 0.03 0"/>
<feBlend mode="normal" in2="effect3_dropShadow_1175_186" result="effect4_dropShadow_1175_186"/>
<feBlend mode="normal" in="SourceGraphic" in2="effect4_dropShadow_1175_186" result="shape"/>
</filter>
<filter id="filter1_bdddd_1175_186" x="124" y="1433" width="158" height="57" filterUnits="userSpaceOnUse" color-interpolation-filters="sRGB">
<feFlood flood-opacity="0" result="BackgroundImageFix"/>
<feGaussianBlur in="BackgroundImageFix" stdDeviation="2"/>
<feComposite in2="SourceAlpha" operator="in" result="effect1_backgroundBlur_1175_186"/>
<feColorMatrix in="SourceAlpha" type="matrix" values="0 0 0 0 0 0 0 0 0 0 0 0 0 0 0 0 0 0 127 0" result="hardAlpha"/>
<feOffset/>
<feGaussianBlur stdDeviation="0.5"/>
<feColorMatrix type="matrix" values="0 0 0 0 0.741176 0 0 0 0 0.0196078 0 0 0 0 0.941176 0 0 0 0.85 0"/>
<feBlend mode="normal" in2="effect1_backgroundBlur_1175_186" result="effect2_dropShadow_1175_186"/>
<feColorMatrix in="SourceAlpha" type="matrix" values="0 0 0 0 0 0 0 0 0 0 0 0 0 0 0 0 0 0 127 0" result="hardAlpha"/>
<feOffset/>
<feGaussianBlur stdDeviation="0.5"/>
<feColorMatrix type="matrix" values="0 0 0 0 0.741176 0 0 0 0 0.0196078 0 0 0 0 0.941176 0 0 0 0.5 0"/>
<feBlend mode="normal" in2="effect2_dropShadow_1175_186" result="effect3_dropShadow_1175_186"/>
<feColorMatrix in="SourceAlpha" type="matrix" values="0 0 0 0 0 0 0 0 0 0 0 0 0 0 0 0 0 0 127 0" result="hardAlpha"/>
<feOffset/>
<feGaussianBlur stdDeviation="0.5"/>
<feColorMatrix type="matrix" values="0 0 0 0 0.741176 0 0 0 0 0.0196078 0 0 0 0 0.941176 0 0 0 0.15 0"/>
<feBlend mode="normal" in2="effect3_dropShadow_1175_186" result="effect4_dropShadow_1175_186"/>
<feColorMatrix in="SourceAlpha" type="matrix" values="0 0 0 0 0 0 0 0 0 0 0 0 0 0 0 0 0 0 127 0" result="hardAlpha"/>
<feOffset/>
<feGaussianBlur stdDeviation="0.5"/>
<feColorMatrix type="matrix" values="0 0 0 0 0.741176 0 0 0 0 0.0196078 0 0 0 0 0.941176 0 0 0 0.02 0"/>
<feBlend mode="normal" in2="effect4_dropShadow_1175_186" result="effect5_dropShadow_1175_186"/>
<feBlend mode="normal" in="SourceGraphic" in2="effect5_dropShadow_1175_186" result="shape"/>
</filter>
<filter id="filter2_bdddd_1175_186" x="306" y="1433" width="158" height="57" filterUnits="userSpaceOnUse" color-interpolation-filters="sRGB">
<feFlood flood-opacity="0" result="BackgroundImageFix"/>
<feGaussianBlur in="BackgroundImageFix" stdDeviation="2"/>
<feComposite in2="SourceAlpha" operator="in" result="effect1_backgroundBlur_1175_186"/>
<feColorMatrix in="SourceAlpha" type="matrix" values="0 0 0 0 0 0 0 0 0 0 0 0 0 0 0 0 0 0 127 0" result="hardAlpha"/>
<feOffset/>
<feGaussianBlur stdDeviation="0.5"/>
<feColorMatrix type="matrix" values="0 0 0 0 0.741176 0 0 0 0 0.0196078 0 0 0 0 0.941176 0 0 0 0.85 0"/>
<feBlend mode="normal" in2="effect1_backgroundBlur_1175_186" result="effect2_dropShadow_1175_186"/>
<feColorMatrix in="SourceAlpha" type="matrix" values="0 0 0 0 0 0 0 0 0 0 0 0 0 0 0 0 0 0 127 0" result="hardAlpha"/>
<feOffset/>
<feGaussianBlur stdDeviation="0.5"/>
<feColorMatrix type="matrix" values="0 0 0 0 0.741176 0 0 0 0 0.0196078 0 0 0 0 0.941176 0 0 0 0.5 0"/>
<feBlend mode="normal" in2="effect2_dropShadow_1175_186" result="effect3_dropShadow_1175_186"/>
<feColorMatrix in="SourceAlpha" type="matrix" values="0 0 0 0 0 0 0 0 0 0 0 0 0 0 0 0 0 0 127 0" result="hardAlpha"/>
<feOffset/>
<feGaussianBlur stdDeviation="0.5"/>
<feColorMatrix type="matrix" values="0 0 0 0 0.741176 0 0 0 0 0.0196078 0 0 0 0 0.941176 0 0 0 0.15 0"/>
<feBlend mode="normal" in2="effect3_dropShadow_1175_186" result="effect4_dropShadow_1175_186"/>
<feColorMatrix in="SourceAlpha" type="matrix" values="0 0 0 0 0 0 0 0 0 0 0 0 0 0 0 0 0 0 127 0" result="hardAlpha"/>
<feOffset/>
<feGaussianBlur stdDeviation="0.5"/>
<feColorMatrix type="matrix" values="0 0 0 0 0.741176 0 0 0 0 0.0196078 0 0 0 0 0.941176 0 0 0 0.02 0"/>
<feBlend mode="normal" in2="effect4_dropShadow_1175_186" result="effect5_dropShadow_1175_186"/>
<feBlend mode="normal" in="SourceGraphic" in2="effect5_dropShadow_1175_186" result="shape"/>
</filter>
</defs>
</svg>
