<svg width="525" height="66" viewBox="0 0 525 66" fill="none" xmlns="http://www.w3.org/2000/svg">
<path d="M19.3567 1.58V19.22H22.2067V29.24H17.8267V23H4.41672V29.24H0.0367188V19.22H1.68672C2.24672 18.1 2.78672 16.92 3.30672 15.68C3.82672 14.44 4.30672 13.11 4.74672 11.69C5.20672 10.27 5.61672 8.73 5.97672 7.07C6.33672 5.39 6.63672 3.56 6.87672 1.58H19.3567ZM10.4767 5.36C10.3367 6.4 10.1367 7.51 9.87672 8.69C9.61672 9.85 9.30672 11.04 8.94672 12.26C8.60672 13.48 8.22672 14.68 7.80672 15.86C7.38672 17.04 6.93672 18.16 6.45672 19.22H14.8267V5.36H10.4767ZM40.0169 14.78C40.0169 16.14 39.8269 17.35 39.4469 18.41C39.0869 19.47 38.5569 20.37 37.8569 21.11C37.1769 21.83 36.3469 22.38 35.3669 22.76C34.3869 23.12 33.2769 23.3 32.0369 23.3C30.8969 23.3 29.8369 23.12 28.8569 22.76C27.8969 22.38 27.0669 21.83 26.3669 21.11C25.6669 20.37 25.1169 19.47 24.7169 18.41C24.3369 17.35 24.1469 16.14 24.1469 14.78C24.1469 12.96 24.4669 11.43 25.1069 10.19C25.7469 8.93 26.6669 7.97 27.8669 7.31C29.0669 6.65 30.4869 6.32 32.1269 6.32C33.6669 6.32 35.0269 6.65 36.2069 7.31C37.3869 7.97 38.3169 8.93 38.9969 10.19C39.6769 11.43 40.0169 12.96 40.0169 14.78ZM28.7069 14.78C28.7069 15.86 28.8169 16.77 29.0369 17.51C29.2769 18.23 29.6469 18.78 30.1469 19.16C30.6469 19.52 31.2969 19.7 32.0969 19.7C32.8969 19.7 33.5369 19.52 34.0169 19.16C34.5169 18.78 34.8769 18.23 35.0969 17.51C35.3369 16.77 35.4569 15.86 35.4569 14.78C35.4569 13.7 35.3369 12.8 35.0969 12.08C34.8769 11.36 34.5169 10.82 34.0169 10.46C33.5169 10.1 32.8669 9.92 32.0669 9.92C30.8869 9.92 30.0269 10.33 29.4869 11.15C28.9669 11.95 28.7069 13.16 28.7069 14.78ZM42.7211 13.19C42.7211 10.77 43.0211 8.72 43.6211 7.04C44.2211 5.34 45.1711 3.99 46.4711 2.99C47.7711 1.97 49.4711 1.28 51.5711 0.919998C52.6311 0.739998 53.7011 0.589998 54.7811 0.469999C55.8811 0.329999 57.0111 0.189999 58.1711 0.0499986L58.6811 3.95C58.1811 4.01 57.6311 4.08 57.0311 4.16C56.4311 4.22 55.8211 4.29 55.2011 4.37C54.6011 4.43 54.0211 4.5 53.4611 4.58C52.9011 4.66 52.3911 4.73 51.9311 4.79C51.1911 4.91 50.5411 5.08 49.9811 5.3C49.4211 5.5 48.9511 5.79 48.5711 6.17C48.1911 6.55 47.8911 7.07 47.6711 7.73C47.4711 8.37 47.3411 9.2 47.2811 10.22H47.4911C47.7311 9.84 48.0611 9.46 48.4811 9.08C48.9211 8.7 49.4611 8.38 50.1011 8.12C50.7411 7.86 51.4711 7.73 52.2911 7.73C53.5911 7.73 54.7211 8 55.6811 8.54C56.6411 9.08 57.3811 9.88 57.9011 10.94C58.4211 12 58.6811 13.32 58.6811 14.9C58.6811 16.76 58.3411 18.31 57.6611 19.55C56.9811 20.79 56.0411 21.73 54.8411 22.37C53.6411 22.99 52.2511 23.3 50.6711 23.3C49.4711 23.3 48.3811 23.08 47.4011 22.64C46.4211 22.2 45.5811 21.55 44.8811 20.69C44.1811 19.83 43.6411 18.77 43.2611 17.51C42.9011 16.25 42.7211 14.81 42.7211 13.19ZM50.9411 19.67C51.5811 19.67 52.1311 19.53 52.5911 19.25C53.0711 18.97 53.4411 18.51 53.7011 17.87C53.9811 17.23 54.1211 16.37 54.1211 15.29C54.1211 13.99 53.9011 12.96 53.4611 12.2C53.0411 11.42 52.3011 11.03 51.2411 11.03C50.6011 11.03 50.0011 11.19 49.4411 11.51C48.9011 11.81 48.4411 12.16 48.0611 12.56C47.6811 12.94 47.4211 13.27 47.2811 13.55C47.2811 14.33 47.3411 15.09 47.4611 15.83C47.5811 16.55 47.7811 17.2 48.0611 17.78C48.3411 18.36 48.7111 18.82 49.1711 19.16C49.6511 19.5 50.2411 19.67 50.9411 19.67ZM71.4932 6.32C73.3332 6.32 74.8232 7.04 75.9632 8.48C77.1032 9.9 77.6732 12 77.6732 14.78C77.6732 16.64 77.4032 18.21 76.8632 19.49C76.3232 20.75 75.5832 21.7 74.6432 22.34C73.7032 22.98 72.6132 23.3 71.3732 23.3C70.5932 23.3 69.9132 23.2 69.3332 23C68.7732 22.8 68.2932 22.54 67.8932 22.22C67.4932 21.9 67.1432 21.56 66.8432 21.2H66.6032C66.6832 21.58 66.7432 21.98 66.7832 22.4C66.8232 22.8 66.8432 23.2 66.8432 23.6V30.2H62.3732V6.62H66.0032L66.6332 8.75H66.8432C67.1432 8.31 67.5032 7.91 67.9232 7.55C68.3432 7.17 68.8432 6.87 69.4232 6.65C70.0232 6.43 70.7132 6.32 71.4932 6.32ZM70.0532 9.89C69.2732 9.89 68.6532 10.05 68.1932 10.37C67.7332 10.69 67.3932 11.18 67.1732 11.84C66.9732 12.48 66.8632 13.29 66.8432 14.27V14.75C66.8432 15.81 66.9432 16.71 67.1432 17.45C67.3432 18.17 67.6832 18.72 68.1632 19.1C68.6432 19.48 69.2932 19.67 70.1132 19.67C70.7932 19.67 71.3532 19.48 71.7932 19.1C72.2332 18.72 72.5632 18.16 72.7832 17.42C73.0032 16.68 73.1132 15.78 73.1132 14.72C73.1132 13.12 72.8632 11.92 72.3632 11.12C71.8832 10.3 71.1132 9.89 70.0532 9.89ZM96.2376 14.78C96.2376 16.14 96.0476 17.35 95.6676 18.41C95.3076 19.47 94.7776 20.37 94.0776 21.11C93.3976 21.83 92.5676 22.38 91.5876 22.76C90.6076 23.12 89.4976 23.3 88.2576 23.3C87.1176 23.3 86.0576 23.12 85.0776 22.76C84.1176 22.38 83.2876 21.83 82.5876 21.11C81.8876 20.37 81.3376 19.47 80.9376 18.41C80.5576 17.35 80.3676 16.14 80.3676 14.78C80.3676 12.96 80.6876 11.43 81.3276 10.19C81.9676 8.93 82.8876 7.97 84.0876 7.31C85.2876 6.65 86.7076 6.32 88.3476 6.32C89.8876 6.32 91.2476 6.65 92.4276 7.31C93.6076 7.97 94.5376 8.93 95.2176 10.19C95.8976 11.43 96.2376 12.96 96.2376 14.78ZM84.9276 14.78C84.9276 15.86 85.0376 16.77 85.2576 17.51C85.4976 18.23 85.8676 18.78 86.3676 19.16C86.8676 19.52 87.5176 19.7 88.3176 19.7C89.1176 19.7 89.7576 19.52 90.2376 19.16C90.7376 18.78 91.0976 18.23 91.3176 17.51C91.5576 16.77 91.6776 15.86 91.6776 14.78C91.6776 13.7 91.5576 12.8 91.3176 12.08C91.0976 11.36 90.7376 10.82 90.2376 10.46C89.7376 10.1 89.0876 9.92 88.2876 9.92C87.1076 9.92 86.2476 10.33 85.7076 11.15C85.1876 11.95 84.9276 13.16 84.9276 14.78ZM125.505 6.62V23H121.035V9.98H115.095V23H110.625V6.62H125.505ZM145.075 14.78C145.075 16.14 144.885 17.35 144.505 18.41C144.145 19.47 143.615 20.37 142.915 21.11C142.235 21.83 141.405 22.38 140.425 22.76C139.445 23.12 138.335 23.3 137.095 23.3C135.955 23.3 134.895 23.12 133.915 22.76C132.955 22.38 132.125 21.83 131.425 21.11C130.725 20.37 130.175 19.47 129.775 18.41C129.395 17.35 129.205 16.14 129.205 14.78C129.205 12.96 129.525 11.43 130.165 10.19C130.805 8.93 131.725 7.97 132.925 7.31C134.125 6.65 135.545 6.32 137.185 6.32C138.725 6.32 140.085 6.65 141.265 7.31C142.445 7.97 143.375 8.93 144.055 10.19C144.735 11.43 145.075 12.96 145.075 14.78ZM133.765 14.78C133.765 15.86 133.875 16.77 134.095 17.51C134.335 18.23 134.705 18.78 135.205 19.16C135.705 19.52 136.355 19.7 137.155 19.7C137.955 19.7 138.595 19.52 139.075 19.16C139.575 18.78 139.935 18.23 140.155 17.51C140.395 16.77 140.515 15.86 140.515 14.78C140.515 13.7 140.395 12.8 140.155 12.08C139.935 11.36 139.575 10.82 139.075 10.46C138.575 10.1 137.925 9.92 137.125 9.92C135.945 9.92 135.085 10.33 134.545 11.15C134.025 11.95 133.765 13.16 133.765 14.78ZM171.464 6.62L165.434 14.48L172.034 23H167.264L161.024 14.69V23H156.854V14.69L150.614 23H145.844L152.444 14.48L146.414 6.62H151.034L156.854 14.57V6.62H161.024V14.57L166.844 6.62H171.464ZM181.095 6.29C183.295 6.29 184.975 6.77 186.135 7.73C187.315 8.67 187.905 10.12 187.905 12.08V23H184.785L183.915 20.78H183.795C183.335 21.36 182.855 21.84 182.355 22.22C181.875 22.6 181.315 22.87 180.675 23.03C180.055 23.21 179.285 23.3 178.365 23.3C177.405 23.3 176.535 23.12 175.755 22.76C174.995 22.38 174.395 21.81 173.955 21.05C173.515 20.27 173.295 19.29 173.295 18.11C173.295 16.37 173.905 15.09 175.125 14.27C176.345 13.43 178.175 12.97 180.615 12.89L183.465 12.8V12.08C183.465 11.22 183.235 10.59 182.775 10.19C182.335 9.79 181.715 9.59 180.915 9.59C180.115 9.59 179.335 9.71 178.575 9.95C177.815 10.17 177.055 10.45 176.295 10.79L174.825 7.76C175.705 7.3 176.675 6.94 177.735 6.68C178.815 6.42 179.935 6.29 181.095 6.29ZM181.725 15.47C180.285 15.51 179.285 15.77 178.725 16.25C178.165 16.73 177.885 17.36 177.885 18.14C177.885 18.82 178.085 19.31 178.485 19.61C178.885 19.89 179.405 20.03 180.045 20.03C181.005 20.03 181.815 19.75 182.475 19.19C183.135 18.61 183.465 17.8 183.465 16.76V15.41L181.725 15.47ZM207.151 23H202.681V9.98H198.571C198.371 12.38 198.121 14.43 197.821 16.13C197.541 17.81 197.181 19.18 196.741 20.24C196.321 21.3 195.781 22.08 195.121 22.58C194.461 23.06 193.651 23.3 192.691 23.3C192.171 23.3 191.701 23.26 191.281 23.18C190.861 23.1 190.481 22.98 190.141 22.82V19.25C190.361 19.33 190.591 19.4 190.831 19.46C191.071 19.52 191.321 19.55 191.581 19.55C191.861 19.55 192.121 19.44 192.361 19.22C192.621 19 192.861 18.61 193.081 18.05C193.321 17.49 193.541 16.72 193.741 15.74C193.941 14.76 194.121 13.53 194.281 12.05C194.461 10.55 194.621 8.74 194.761 6.62H207.151V23ZM226.697 14.78C226.697 16.14 226.507 17.35 226.127 18.41C225.767 19.47 225.237 20.37 224.537 21.11C223.857 21.83 223.027 22.38 222.047 22.76C221.067 23.12 219.957 23.3 218.717 23.3C217.577 23.3 216.517 23.12 215.537 22.76C214.577 22.38 213.747 21.83 213.047 21.11C212.347 20.37 211.797 19.47 211.397 18.41C211.017 17.35 210.827 16.14 210.827 14.78C210.827 12.96 211.147 11.43 211.787 10.19C212.427 8.93 213.347 7.97 214.547 7.31C215.747 6.65 217.167 6.32 218.807 6.32C220.347 6.32 221.707 6.65 222.887 7.31C224.067 7.97 224.997 8.93 225.677 10.19C226.357 11.43 226.697 12.96 226.697 14.78ZM215.387 14.78C215.387 15.86 215.497 16.77 215.717 17.51C215.957 18.23 216.327 18.78 216.827 19.16C217.327 19.52 217.977 19.7 218.777 19.7C219.577 19.7 220.217 19.52 220.697 19.16C221.197 18.78 221.557 18.23 221.777 17.51C222.017 16.77 222.137 15.86 222.137 14.78C222.137 13.7 222.017 12.8 221.777 12.08C221.557 11.36 221.197 10.82 220.697 10.46C220.197 10.1 219.547 9.92 218.747 9.92C217.567 9.92 216.707 10.33 216.167 11.15C215.647 11.95 215.387 13.16 215.387 14.78ZM244.911 10.91C244.911 11.79 244.631 12.54 244.071 13.16C243.531 13.78 242.721 14.18 241.641 14.36V14.48C242.781 14.62 243.691 15.01 244.371 15.65C245.071 16.29 245.421 17.11 245.421 18.11C245.421 18.81 245.281 19.46 245.001 20.06C244.741 20.66 244.321 21.18 243.741 21.62C243.161 22.06 242.411 22.4 241.491 22.64C240.591 22.88 239.491 23 238.191 23H230.391V6.62H238.191C239.471 6.62 240.611 6.76 241.611 7.04C242.631 7.3 243.431 7.74 244.011 8.36C244.611 8.98 244.911 9.83 244.911 10.91ZM240.801 17.87C240.801 17.23 240.551 16.77 240.051 16.49C239.551 16.19 238.801 16.04 237.801 16.04H234.861V19.91H237.891C238.731 19.91 239.421 19.76 239.961 19.46C240.521 19.14 240.801 18.61 240.801 17.87ZM240.381 11.27C240.381 10.75 240.181 10.37 239.781 10.13C239.381 9.89 238.791 9.77 238.011 9.77H234.861V13.01H237.501C238.441 13.01 239.151 12.88 239.631 12.62C240.131 12.34 240.381 11.89 240.381 11.27ZM255.978 6.29C258.178 6.29 259.858 6.77 261.018 7.73C262.198 8.67 262.788 10.12 262.788 12.08V23H259.668L258.798 20.78H258.678C258.218 21.36 257.738 21.84 257.238 22.22C256.758 22.6 256.198 22.87 255.558 23.03C254.938 23.21 254.168 23.3 253.248 23.3C252.288 23.3 251.418 23.12 250.638 22.76C249.878 22.38 249.278 21.81 248.838 21.05C248.398 20.27 248.178 19.29 248.178 18.11C248.178 16.37 248.788 15.09 250.008 14.27C251.228 13.43 253.058 12.97 255.498 12.89L258.348 12.8V12.08C258.348 11.22 258.118 10.59 257.658 10.19C257.218 9.79 256.598 9.59 255.798 9.59C254.998 9.59 254.218 9.71 253.458 9.95C252.698 10.17 251.938 10.45 251.178 10.79L249.708 7.76C250.588 7.3 251.558 6.94 252.618 6.68C253.698 6.42 254.818 6.29 255.978 6.29ZM256.608 15.47C255.168 15.51 254.168 15.77 253.608 16.25C253.048 16.73 252.768 17.36 252.768 18.14C252.768 18.82 252.968 19.31 253.368 19.61C253.768 19.89 254.288 20.03 254.928 20.03C255.888 20.03 256.698 19.75 257.358 19.19C258.018 18.61 258.348 17.8 258.348 16.76V15.41L256.608 15.47ZM280.923 9.98H275.553V23H271.083V9.98H265.713V6.62H280.923V9.98ZM291.565 12.95C293.245 12.95 294.635 13.13 295.735 13.49C296.835 13.83 297.645 14.36 298.165 15.08C298.705 15.8 298.975 16.7 298.975 17.78C298.975 18.84 298.725 19.76 298.225 20.54C297.745 21.32 296.975 21.93 295.915 22.37C294.855 22.79 293.465 23 291.745 23H283.945V6.62H288.415V12.95H291.565ZM294.505 17.84C294.505 17.2 294.245 16.74 293.725 16.46C293.225 16.18 292.475 16.04 291.475 16.04H288.415V19.91H291.535C292.415 19.91 293.125 19.75 293.665 19.43C294.225 19.11 294.505 18.58 294.505 17.84ZM317.537 6.62V12.92H323.777V6.62H328.247V23H323.777V16.25H317.537V23H313.067V6.62H317.537ZM339.65 6.29C341.85 6.29 343.53 6.77 344.69 7.73C345.87 8.67 346.46 10.12 346.46 12.08V23H343.34L342.47 20.78H342.35C341.89 21.36 341.41 21.84 340.91 22.22C340.43 22.6 339.87 22.87 339.23 23.03C338.61 23.21 337.84 23.3 336.92 23.3C335.96 23.3 335.09 23.12 334.31 22.76C333.55 22.38 332.95 21.81 332.51 21.05C332.07 20.27 331.85 19.29 331.85 18.11C331.85 16.37 332.46 15.09 333.68 14.27C334.9 13.43 336.73 12.97 339.17 12.89L342.02 12.8V12.08C342.02 11.22 341.79 10.59 341.33 10.19C340.89 9.79 340.27 9.59 339.47 9.59C338.67 9.59 337.89 9.71 337.13 9.95C336.37 10.17 335.61 10.45 334.85 10.79L333.38 7.76C334.26 7.3 335.23 6.94 336.29 6.68C337.37 6.42 338.49 6.29 339.65 6.29ZM340.28 15.47C338.84 15.51 337.84 15.77 337.28 16.25C336.72 16.73 336.44 17.36 336.44 18.14C336.44 18.82 336.64 19.31 337.04 19.61C337.44 19.89 337.96 20.03 338.6 20.03C339.56 20.03 340.37 19.75 341.03 19.19C341.69 18.61 342.02 17.8 342.02 16.76V15.41L340.28 15.47ZM377.629 23.78C377.309 23.78 377.039 23.71 376.819 23.57L374.029 21.68C372.489 22.68 370.869 23.18 369.169 23.18C367.549 23.18 366.079 22.75 364.759 21.89C363.459 21.03 362.439 19.88 361.699 18.44C360.959 17 360.589 15.43 360.589 13.73C360.589 11.77 361.039 9.95 361.939 8.27C362.859 6.57 364.079 5.22 365.599 4.22C367.119 3.22 368.749 2.72 370.489 2.72C372.109 2.72 373.569 3.15 374.869 4.01C376.189 4.87 377.219 6.03 377.959 7.49C378.699 8.93 379.069 10.5 379.069 12.2C379.069 13.66 378.829 15.03 378.349 16.31C377.889 17.57 377.209 18.7 376.309 19.7L378.469 21.08C378.889 21.34 379.099 21.76 379.099 22.34C379.099 22.78 378.949 23.13 378.649 23.39C378.349 23.65 378.009 23.78 377.629 23.78ZM369.169 20.27C369.849 20.27 370.529 20.14 371.209 19.88L370.009 19.07C369.749 18.89 369.569 18.71 369.469 18.53C369.389 18.33 369.349 18.1 369.349 17.84C369.349 17.42 369.489 17.07 369.769 16.79C370.069 16.51 370.409 16.37 370.789 16.37C371.149 16.37 371.469 16.47 371.749 16.67L373.789 18.02C374.449 17.26 374.979 16.38 375.379 15.38C375.779 14.38 375.979 13.35 375.979 12.29C375.979 11.15 375.729 10.07 375.229 9.05C374.729 8.03 374.039 7.21 373.159 6.59C372.299 5.95 371.339 5.63 370.279 5.63C369.139 5.63 368.059 5.99 367.039 6.71C366.019 7.43 365.199 8.4 364.579 9.62C363.979 10.84 363.679 12.17 363.679 13.61C363.679 14.83 363.909 15.95 364.369 16.97C364.849 17.99 365.509 18.8 366.349 19.4C367.189 19.98 368.129 20.27 369.169 20.27ZM386.458 23.27C385.378 23.27 384.518 23.04 383.878 22.58C383.238 22.1 382.758 21.24 382.438 20C382.118 18.76 381.958 16.98 381.958 14.66C381.958 13.88 381.988 13.02 382.048 12.08C382.108 11.14 382.188 10.35 382.288 9.71C382.368 9.21 382.518 8.83 382.738 8.57C382.958 8.31 383.278 8.18 383.698 8.18C384.098 8.18 384.438 8.3 384.718 8.54C384.998 8.78 385.138 9.13 385.138 9.59L385.078 10.43C384.878 12.13 384.778 13.76 384.778 15.32C384.778 17.36 384.948 18.75 385.288 19.49C385.648 20.21 386.138 20.57 386.758 20.57C387.478 20.57 388.218 20.38 388.978 20C389.738 19.6 390.278 19.22 390.598 18.86C390.718 18.74 390.778 18.49 390.778 18.11L390.838 9.56C390.838 9.16 390.978 8.83 391.258 8.57C391.558 8.31 391.888 8.18 392.248 8.18C392.628 8.18 392.958 8.31 393.238 8.57C393.538 8.83 393.688 9.16 393.688 9.56V21.74C393.688 22.12 393.538 22.46 393.238 22.76C392.958 23.04 392.628 23.18 392.248 23.18C391.848 23.18 391.488 23.06 391.168 22.82C390.868 22.56 390.718 22.24 390.718 21.86V21.53C389.958 22.07 389.248 22.5 388.588 22.82C387.948 23.12 387.238 23.27 386.458 23.27ZM399.495 6.95C399.115 6.95 398.775 6.8 398.475 6.5C398.195 6.2 398.065 5.86 398.085 5.48L398.115 4.37C398.135 3.99 398.285 3.66 398.565 3.38C398.845 3.1 399.175 2.96 399.555 2.96C399.935 2.96 400.265 3.11 400.545 3.41C400.845 3.71 400.985 4.04 400.965 4.4L400.935 5.54C400.915 5.94 400.765 6.28 400.485 6.56C400.225 6.82 399.895 6.95 399.495 6.95ZM399.345 23.18C398.945 23.18 398.595 23.04 398.295 22.76C398.015 22.46 397.875 22.11 397.875 21.71L398.025 9.77C398.025 9.37 398.165 9.03 398.445 8.75C398.745 8.45 399.095 8.3 399.495 8.3C399.915 8.3 400.265 8.45 400.545 8.75C400.825 9.03 400.965 9.37 400.965 9.77L400.815 21.71C400.815 22.11 400.665 22.46 400.365 22.76C400.085 23.04 399.745 23.18 399.345 23.18ZM404.72 23C404.26 23 403.9 22.86 403.64 22.58C403.4 22.3 403.28 21.96 403.28 21.56C403.28 21.22 403.38 20.93 403.58 20.69L411.2 11.24H404.93C404.53 11.24 404.19 11.1 403.91 10.82C403.63 10.54 403.49 10.2 403.49 9.8C403.49 9.4 403.63 9.06 403.91 8.78C404.19 8.48 404.53 8.33 404.93 8.33H414.05C414.49 8.33 414.84 8.48 415.1 8.78C415.36 9.06 415.49 9.4 415.49 9.8C415.49 10.12 415.39 10.41 415.19 10.67L407.57 20.12H414.26C414.66 20.12 415 20.26 415.28 20.54C415.56 20.82 415.7 21.16 415.7 21.56C415.7 21.94 415.55 22.28 415.25 22.58C414.97 22.86 414.64 23 414.26 23H404.72ZM434.725 23.18C433.005 23.18 431.505 22.8 430.225 22.04C428.965 21.28 428.075 20.35 427.555 19.25C427.335 18.77 427.225 18.38 427.225 18.08C427.225 17.66 427.375 17.31 427.675 17.03C427.975 16.73 428.335 16.58 428.755 16.58C429.115 16.58 429.425 16.68 429.685 16.88C429.945 17.08 430.135 17.35 430.255 17.69C430.575 18.55 431.165 19.21 432.025 19.67C432.885 20.13 433.805 20.36 434.785 20.36C436.025 20.36 437.045 20.07 437.845 19.49C438.665 18.89 439.075 18.16 439.075 17.3C439.075 16.64 438.745 16.04 438.085 15.5C437.445 14.96 436.345 14.47 434.785 14.03C432.765 13.47 431.175 12.75 430.015 11.87C428.855 10.97 428.275 9.74 428.275 8.18C428.275 7.12 428.555 6.18 429.115 5.36C429.695 4.52 430.515 3.87 431.575 3.41C432.635 2.95 433.875 2.72 435.295 2.72C437.335 2.72 438.935 3.12 440.095 3.92C441.275 4.72 441.865 5.79 441.865 7.13C441.865 7.57 441.725 7.94 441.445 8.24C441.165 8.54 440.815 8.69 440.395 8.69C440.035 8.69 439.725 8.57 439.465 8.33C439.205 8.09 439.055 7.79 439.015 7.43C438.935 6.87 438.565 6.41 437.905 6.05C437.245 5.67 436.375 5.48 435.295 5.48C433.955 5.48 432.935 5.71 432.235 6.17C431.535 6.61 431.185 7.21 431.185 7.97C431.185 8.67 431.545 9.26 432.265 9.74C432.985 10.22 434.165 10.7 435.805 11.18C437.825 11.76 439.355 12.54 440.395 13.52C441.435 14.5 441.955 15.71 441.955 17.15C441.955 18.27 441.625 19.29 440.965 20.21C440.305 21.13 439.415 21.86 438.295 22.4C437.195 22.92 436.005 23.18 434.725 23.18ZM451.582 23.18C450.162 23.18 448.882 22.88 447.742 22.28C446.622 21.66 445.742 20.79 445.102 19.67C444.462 18.53 444.142 17.19 444.142 15.65C444.142 14.39 444.422 13.19 444.982 12.05C445.562 10.89 446.362 9.96 447.382 9.26C448.422 8.56 449.602 8.21 450.922 8.21C452.142 8.21 453.182 8.46 454.042 8.96C454.922 9.44 455.582 10.02 456.022 10.7C456.462 11.38 456.682 11.99 456.682 12.53C456.682 12.79 456.602 13.04 456.442 13.28C456.282 13.52 456.052 13.73 455.752 13.91L447.712 18.53C447.992 19.15 448.482 19.63 449.182 19.97C449.902 20.31 450.702 20.48 451.582 20.48C452.742 20.48 453.732 20.05 454.552 19.19C454.872 18.87 455.202 18.71 455.542 18.71C455.942 18.71 456.272 18.84 456.532 19.1C456.812 19.36 456.952 19.68 456.952 20.06C456.952 20.38 456.832 20.68 456.592 20.96C456.032 21.58 455.282 22.11 454.342 22.55C453.422 22.97 452.502 23.18 451.582 23.18ZM453.712 12.17C453.472 11.75 453.132 11.44 452.692 11.24C452.252 11.02 451.732 10.91 451.132 10.91C449.992 10.91 449.032 11.3 448.252 12.08C447.492 12.86 447.052 13.82 446.932 14.96C446.892 15.26 446.872 15.62 446.872 16.04L453.712 12.17ZM465.418 23.18C464.218 23.18 463.118 22.89 462.118 22.31C461.118 21.73 460.328 20.94 459.748 19.94C459.168 18.92 458.878 17.81 458.878 16.61C458.878 15.25 459.198 13.92 459.838 12.62C460.478 11.32 461.318 10.26 462.358 9.44C463.398 8.62 464.498 8.21 465.658 8.21C466.718 8.21 467.568 8.38 468.208 8.72C468.868 9.04 469.508 9.56 470.128 10.28C470.428 10.6 470.578 10.95 470.578 11.33C470.578 11.71 470.438 12.04 470.158 12.32C469.878 12.58 469.538 12.71 469.138 12.71C468.878 12.71 468.668 12.67 468.508 12.59C468.368 12.51 468.198 12.35 467.998 12.11C467.658 11.73 467.318 11.44 466.978 11.24C466.658 11.04 466.228 10.94 465.688 10.94C465.068 10.94 464.438 11.21 463.798 11.75C463.178 12.29 462.668 13 462.268 13.88C461.888 14.74 461.698 15.63 461.698 16.55C461.698 17.35 461.868 18.05 462.208 18.65C462.568 19.23 463.028 19.68 463.588 20C464.148 20.3 464.738 20.45 465.358 20.45C466.158 20.45 466.808 20.3 467.308 20C467.828 19.7 468.288 19.29 468.688 18.77C469.068 18.27 469.498 18.02 469.978 18.02C470.358 18.02 470.688 18.16 470.968 18.44C471.248 18.7 471.388 19 471.388 19.34C471.388 19.74 471.278 20.08 471.058 20.36C470.478 21.14 469.688 21.81 468.688 22.37C467.688 22.91 466.598 23.18 465.418 23.18ZM479.15 23.18C478.01 23.18 476.96 22.87 476 22.25C475.06 21.63 474.32 20.79 473.78 19.73C473.24 18.65 472.97 17.48 472.97 16.22C472.97 14.8 473.29 13.48 473.93 12.26C474.57 11.02 475.43 10.04 476.51 9.32C477.59 8.58 478.75 8.21 479.99 8.21C481.13 8.21 482.17 8.53 483.11 9.17C484.07 9.81 484.82 10.66 485.36 11.72C485.92 12.78 486.2 13.92 486.2 15.14C486.2 16.58 485.88 17.92 485.24 19.16C484.6 20.38 483.73 21.36 482.63 22.1C481.55 22.82 480.39 23.18 479.15 23.18ZM479.15 20.48C479.85 20.48 480.52 20.24 481.16 19.76C481.8 19.28 482.31 18.64 482.69 17.84C483.07 17.04 483.26 16.19 483.26 15.29C483.26 14.53 483.11 13.82 482.81 13.16C482.51 12.48 482.1 11.94 481.58 11.54C481.06 11.12 480.49 10.91 479.87 10.91C479.17 10.91 478.51 11.16 477.89 11.66C477.29 12.14 476.81 12.79 476.45 13.61C476.09 14.41 475.91 15.27 475.91 16.19C475.91 17.09 476.06 17.86 476.36 18.5C476.68 19.14 477.08 19.63 477.56 19.97C478.06 20.31 478.59 20.48 479.15 20.48ZM490.868 23.18C490.488 23.18 490.148 23.04 489.848 22.76C489.568 22.48 489.428 22.16 489.428 21.8V9.62C489.428 9.22 489.578 8.88 489.878 8.6C490.178 8.32 490.528 8.18 490.928 8.18C491.308 8.18 491.628 8.32 491.888 8.6C492.168 8.88 492.308 9.22 492.308 9.62V11.9C492.868 10.7 493.578 9.79 494.438 9.17C495.298 8.53 496.238 8.21 497.258 8.21C498.378 8.21 499.268 8.47 499.928 8.99C500.588 9.51 501.068 10.37 501.368 11.57C501.668 12.75 501.818 14.39 501.818 16.49L501.788 21.74C501.788 22.12 501.658 22.46 501.398 22.76C501.138 23.04 500.808 23.18 500.408 23.18C500.028 23.18 499.688 23.04 499.388 22.76C499.108 22.46 498.968 22.13 498.968 21.77V16.79C498.968 15.23 498.898 14.03 498.758 13.19C498.618 12.35 498.408 11.78 498.128 11.48C497.848 11.16 497.468 11 496.988 11C496.388 11 495.788 11.26 495.188 11.78C494.588 12.28 494.028 13 493.508 13.94C493.048 14.76 492.728 15.56 492.548 16.34C492.368 17.12 492.278 18.06 492.278 19.16V21.68C492.278 22.12 492.148 22.48 491.888 22.76C491.648 23.04 491.308 23.18 490.868 23.18ZM510.127 23.15C509.107 23.15 508.187 22.89 507.367 22.37C506.567 21.83 505.927 21.05 505.447 20.03C504.987 19.01 504.757 17.79 504.757 16.37C504.757 14.65 505.027 13.18 505.567 11.96C506.107 10.74 506.857 9.82 507.817 9.2C508.777 8.56 509.887 8.24 511.147 8.24C512.147 8.24 513.217 8.47 514.357 8.93L514.507 4.28C514.527 3.88 514.677 3.54 514.957 3.26C515.257 2.96 515.607 2.81 516.007 2.81C516.387 2.81 516.717 2.96 516.997 3.26C517.297 3.54 517.437 3.9 517.417 4.34L516.997 21.8C516.977 22.2 516.827 22.53 516.547 22.79C516.267 23.05 515.927 23.18 515.527 23.18C515.147 23.18 514.817 23.07 514.537 22.85C514.277 22.63 514.147 22.34 514.147 21.98V21.44C513.627 21.92 513.017 22.33 512.317 22.67C511.617 22.99 510.887 23.15 510.127 23.15ZM510.367 20.45C511.047 20.45 511.677 20.31 512.257 20.03C512.857 19.73 513.327 19.37 513.667 18.95C514.007 18.53 514.187 18.14 514.207 17.78L514.327 11.87C513.967 11.63 513.507 11.42 512.947 11.24C512.387 11.04 511.847 10.94 511.327 10.94C510.107 10.94 509.187 11.4 508.567 12.32C507.947 13.22 507.637 14.54 507.637 16.28C507.637 17.72 507.877 18.78 508.357 19.46C508.857 20.12 509.527 20.45 510.367 20.45ZM523.341 18.14C522.941 18.14 522.591 18 522.291 17.72C522.011 17.42 521.871 17.07 521.871 16.67V4.43C521.871 4.03 522.011 3.68 522.291 3.38C522.591 3.08 522.941 2.93 523.341 2.93C523.761 2.93 524.111 3.08 524.391 3.38C524.671 3.68 524.811 4.03 524.811 4.43V16.67C524.811 17.07 524.671 17.42 524.391 17.72C524.111 18 523.761 18.14 523.341 18.14ZM523.101 23.18C522.641 23.18 522.261 23.02 521.961 22.7C521.681 22.38 521.541 21.98 521.541 21.5C521.541 21 521.721 20.55 522.081 20.15C522.441 19.75 522.851 19.55 523.311 19.55C523.771 19.55 524.141 19.72 524.421 20.06C524.721 20.38 524.871 20.77 524.871 21.23C524.871 21.77 524.691 22.23 524.331 22.61C523.971 22.99 523.561 23.18 523.101 23.18ZM105.094 36.58V54.22H107.944V64.24H103.564V58H90.154V64.24H85.774V54.22H87.424C87.984 53.1 88.524 51.92 89.044 50.68C89.564 49.44 90.044 48.11 90.484 46.69C90.944 45.27 91.354 43.73 91.714 42.07C92.074 40.39 92.374 38.56 92.614 36.58H105.094ZM96.214 40.36C96.074 41.4 95.874 42.51 95.614 43.69C95.354 44.85 95.044 46.04 94.684 47.26C94.344 48.48 93.964 49.68 93.544 50.86C93.124 52.04 92.674 53.16 92.194 54.22H100.564V40.36H96.214ZM117.594 41.29C119.794 41.29 121.474 41.77 122.634 42.73C123.814 43.67 124.404 45.12 124.404 47.08V58H121.284L120.414 55.78H120.294C119.834 56.36 119.354 56.84 118.854 57.22C118.374 57.6 117.814 57.87 117.174 58.03C116.554 58.21 115.784 58.3 114.864 58.3C113.904 58.3 113.034 58.12 112.254 57.76C111.494 57.38 110.894 56.81 110.454 56.05C110.014 55.27 109.794 54.29 109.794 53.11C109.794 51.37 110.404 50.09 111.624 49.27C112.844 48.43 114.674 47.97 117.114 47.89L119.964 47.8V47.08C119.964 46.22 119.734 45.59 119.274 45.19C118.834 44.79 118.214 44.59 117.414 44.59C116.614 44.59 115.834 44.71 115.074 44.95C114.314 45.17 113.554 45.45 112.794 45.79L111.324 42.76C112.204 42.3 113.174 41.94 114.234 41.68C115.314 41.42 116.434 41.29 117.594 41.29ZM118.224 50.47C116.784 50.51 115.784 50.77 115.224 51.25C114.664 51.73 114.384 52.36 114.384 53.14C114.384 53.82 114.584 54.31 114.984 54.61C115.384 54.89 115.904 55.03 116.544 55.03C117.504 55.03 118.314 54.75 118.974 54.19C119.634 53.61 119.964 52.8 119.964 51.76V50.41L118.224 50.47ZM143.5 45.91C143.5 46.79 143.22 47.54 142.66 48.16C142.12 48.78 141.31 49.18 140.23 49.36V49.48C141.37 49.62 142.28 50.01 142.96 50.65C143.66 51.29 144.01 52.11 144.01 53.11C144.01 53.81 143.87 54.46 143.59 55.06C143.33 55.66 142.91 56.18 142.33 56.62C141.75 57.06 141 57.4 140.08 57.64C139.18 57.88 138.08 58 136.78 58H128.98V41.62H136.78C138.06 41.62 139.2 41.76 140.2 42.04C141.22 42.3 142.02 42.74 142.6 43.36C143.2 43.98 143.5 44.83 143.5 45.91ZM139.39 52.87C139.39 52.23 139.14 51.77 138.64 51.49C138.14 51.19 137.39 51.04 136.39 51.04H133.45V54.91H136.48C137.32 54.91 138.01 54.76 138.55 54.46C139.11 54.14 139.39 53.61 139.39 52.87ZM138.97 46.27C138.97 45.75 138.77 45.37 138.37 45.13C137.97 44.89 137.38 44.77 136.6 44.77H133.45V48.01H136.09C137.03 48.01 137.74 47.88 138.22 47.62C138.72 47.34 138.97 46.89 138.97 46.27ZM154.567 41.29C156.767 41.29 158.447 41.77 159.607 42.73C160.787 43.67 161.377 45.12 161.377 47.08V58H158.257L157.387 55.78H157.267C156.807 56.36 156.327 56.84 155.827 57.22C155.347 57.6 154.787 57.87 154.147 58.03C153.527 58.21 152.757 58.3 151.837 58.3C150.877 58.3 150.007 58.12 149.227 57.76C148.467 57.38 147.867 56.81 147.427 56.05C146.987 55.27 146.767 54.29 146.767 53.11C146.767 51.37 147.377 50.09 148.597 49.27C149.817 48.43 151.647 47.97 154.087 47.89L156.937 47.8V47.08C156.937 46.22 156.707 45.59 156.247 45.19C155.807 44.79 155.187 44.59 154.387 44.59C153.587 44.59 152.807 44.71 152.047 44.95C151.287 45.17 150.527 45.45 149.767 45.79L148.297 42.76C149.177 42.3 150.147 41.94 151.207 41.68C152.287 41.42 153.407 41.29 154.567 41.29ZM155.197 50.47C153.757 50.51 152.757 50.77 152.197 51.25C151.637 51.73 151.357 52.36 151.357 53.14C151.357 53.82 151.557 54.31 151.957 54.61C152.357 54.89 152.877 55.03 153.517 55.03C154.477 55.03 155.287 54.75 155.947 54.19C156.607 53.61 156.937 52.8 156.937 51.76V50.41L155.197 50.47ZM181.642 34.57C181.542 35.61 181.252 36.53 180.772 37.33C180.292 38.11 179.542 38.72 178.522 39.16C177.502 39.6 176.132 39.82 174.412 39.82C172.652 39.82 171.272 39.61 170.272 39.19C169.292 38.75 168.592 38.14 168.172 37.36C167.752 36.58 167.502 35.65 167.422 34.57H171.412C171.512 35.67 171.792 36.4 172.252 36.76C172.712 37.12 173.462 37.3 174.502 37.3C175.362 37.3 176.062 37.11 176.602 36.73C177.162 36.33 177.492 35.61 177.592 34.57H181.642ZM170.272 48.1C170.272 48.44 170.252 48.86 170.212 49.36C170.192 49.86 170.162 50.37 170.122 50.89C170.102 51.41 170.072 51.87 170.032 52.27C169.992 52.67 169.962 52.95 169.942 53.11L177.502 41.62H182.872V58H178.552V51.46C178.552 50.92 178.572 50.33 178.612 49.69C178.652 49.03 178.692 48.42 178.732 47.86C178.792 47.28 178.832 46.84 178.852 46.54L171.322 58H165.952V41.62H170.272V48.1ZM204.897 58.3C203.277 58.3 201.897 58.01 200.757 57.43C199.617 56.83 198.747 55.91 198.147 54.67C197.547 53.43 197.247 51.84 197.247 49.9C197.247 47.9 197.587 46.27 198.267 45.01C198.947 43.75 199.887 42.82 201.087 42.22C202.307 41.62 203.707 41.32 205.287 41.32C206.407 41.32 207.377 41.43 208.197 41.65C209.037 41.87 209.767 42.13 210.387 42.43L209.067 45.88C208.367 45.6 207.707 45.37 207.087 45.19C206.487 45.01 205.887 44.92 205.287 44.92C204.507 44.92 203.857 45.11 203.337 45.49C202.817 45.85 202.427 46.4 202.167 47.14C201.927 47.86 201.807 48.77 201.807 49.87C201.807 50.95 201.937 51.85 202.197 52.57C202.477 53.27 202.877 53.8 203.397 54.16C203.917 54.5 204.547 54.67 205.287 54.67C206.227 54.67 207.057 54.55 207.777 54.31C208.497 54.05 209.197 53.7 209.877 53.26V57.07C209.197 57.51 208.477 57.82 207.717 58C206.977 58.2 206.037 58.3 204.897 58.3ZM224.388 41.62H229.308L222.828 49.48L229.878 58H224.808L218.118 49.69V58H213.648V41.62H218.118V49.57L224.388 41.62ZM246.516 49.78C246.516 51.14 246.326 52.35 245.946 53.41C245.586 54.47 245.056 55.37 244.356 56.11C243.676 56.83 242.846 57.38 241.866 57.76C240.886 58.12 239.776 58.3 238.536 58.3C237.396 58.3 236.336 58.12 235.356 57.76C234.396 57.38 233.566 56.83 232.866 56.11C232.166 55.37 231.616 54.47 231.216 53.41C230.836 52.35 230.646 51.14 230.646 49.78C230.646 47.96 230.966 46.43 231.606 45.19C232.246 43.93 233.166 42.97 234.366 42.31C235.566 41.65 236.986 41.32 238.626 41.32C240.166 41.32 241.526 41.65 242.706 42.31C243.886 42.97 244.816 43.93 245.496 45.19C246.176 46.43 246.516 47.96 246.516 49.78ZM235.206 49.78C235.206 50.86 235.316 51.77 235.536 52.51C235.776 53.23 236.146 53.78 236.646 54.16C237.146 54.52 237.796 54.7 238.596 54.7C239.396 54.7 240.036 54.52 240.516 54.16C241.016 53.78 241.376 53.23 241.596 52.51C241.836 51.77 241.956 50.86 241.956 49.78C241.956 48.7 241.836 47.8 241.596 47.08C241.376 46.36 241.016 45.82 240.516 45.46C240.016 45.1 239.366 44.92 238.566 44.92C237.386 44.92 236.526 45.33 235.986 46.15C235.466 46.95 235.206 48.16 235.206 49.78ZM259.33 41.32C261.17 41.32 262.66 42.04 263.8 43.48C264.94 44.9 265.51 47 265.51 49.78C265.51 51.64 265.24 53.21 264.7 54.49C264.16 55.75 263.42 56.7 262.48 57.34C261.54 57.98 260.45 58.3 259.21 58.3C258.43 58.3 257.75 58.2 257.17 58C256.61 57.8 256.13 57.54 255.73 57.22C255.33 56.9 254.98 56.56 254.68 56.2H254.44C254.52 56.58 254.58 56.98 254.62 57.4C254.66 57.8 254.68 58.2 254.68 58.6V65.2H250.21V41.62H253.84L254.47 43.75H254.68C254.98 43.31 255.34 42.91 255.76 42.55C256.18 42.17 256.68 41.87 257.26 41.65C257.86 41.43 258.55 41.32 259.33 41.32ZM257.89 44.89C257.11 44.89 256.49 45.05 256.03 45.37C255.57 45.69 255.23 46.18 255.01 46.84C254.81 47.48 254.7 48.29 254.68 49.27V49.75C254.68 50.81 254.78 51.71 254.98 52.45C255.18 53.17 255.52 53.72 256 54.1C256.48 54.48 257.13 54.67 257.95 54.67C258.63 54.67 259.19 54.48 259.63 54.1C260.07 53.72 260.4 53.16 260.62 52.42C260.84 51.68 260.95 50.78 260.95 49.72C260.95 48.12 260.7 46.92 260.2 46.12C259.72 45.3 258.95 44.89 257.89 44.89ZM275.944 41.32C277.464 41.32 278.764 41.61 279.844 42.19C280.944 42.77 281.794 43.61 282.394 44.71C282.994 45.81 283.294 47.16 283.294 48.76V50.92H272.734C272.774 52.18 273.144 53.17 273.844 53.89C274.564 54.61 275.554 54.97 276.814 54.97C277.874 54.97 278.834 54.87 279.694 54.67C280.554 54.45 281.444 54.12 282.364 53.68V57.13C281.564 57.53 280.714 57.82 279.814 58C278.934 58.2 277.864 58.3 276.604 58.3C274.964 58.3 273.514 58 272.254 57.4C270.994 56.78 270.004 55.85 269.284 54.61C268.564 53.37 268.204 51.81 268.204 49.93C268.204 48.01 268.524 46.42 269.164 45.16C269.824 43.88 270.734 42.92 271.894 42.28C273.054 41.64 274.404 41.32 275.944 41.32ZM275.974 44.5C275.114 44.5 274.394 44.78 273.814 45.34C273.254 45.9 272.924 46.77 272.824 47.95H279.094C279.094 47.29 278.974 46.7 278.734 46.18C278.514 45.66 278.174 45.25 277.714 44.95C277.254 44.65 276.674 44.5 275.974 44.5ZM293.669 41.32C295.189 41.32 296.489 41.61 297.569 42.19C298.669 42.77 299.519 43.61 300.119 44.71C300.719 45.81 301.019 47.16 301.019 48.76V50.92H290.459C290.499 52.18 290.869 53.17 291.569 53.89C292.289 54.61 293.279 54.97 294.539 54.97C295.599 54.97 296.559 54.87 297.419 54.67C298.279 54.45 299.169 54.12 300.089 53.68V57.13C299.289 57.53 298.439 57.82 297.539 58C296.659 58.2 295.589 58.3 294.329 58.3C292.689 58.3 291.239 58 289.979 57.4C288.719 56.78 287.729 55.85 287.009 54.61C286.289 53.37 285.929 51.81 285.929 49.93C285.929 48.01 286.249 46.42 286.889 45.16C287.549 43.88 288.459 42.92 289.619 42.28C290.779 41.64 292.129 41.32 293.669 41.32ZM293.699 44.5C292.839 44.5 292.119 44.78 291.539 45.34C290.979 45.9 290.649 46.77 290.549 47.95H296.819C296.819 47.29 296.699 46.7 296.459 46.18C296.239 45.66 295.899 45.25 295.439 44.95C294.979 44.65 294.399 44.5 293.699 44.5ZM319.807 41.62V47.92H326.047V41.62H330.517V58H326.047V51.25H319.807V58H315.337V41.62H319.807ZM341.92 41.29C344.12 41.29 345.8 41.77 346.96 42.73C348.14 43.67 348.73 45.12 348.73 47.08V58H345.61L344.74 55.78H344.62C344.16 56.36 343.68 56.84 343.18 57.22C342.7 57.6 342.14 57.87 341.5 58.03C340.88 58.21 340.11 58.3 339.19 58.3C338.23 58.3 337.36 58.12 336.58 57.76C335.82 57.38 335.22 56.81 334.78 56.05C334.34 55.27 334.12 54.29 334.12 53.11C334.12 51.37 334.73 50.09 335.95 49.27C337.17 48.43 339 47.97 341.44 47.89L344.29 47.8V47.08C344.29 46.22 344.06 45.59 343.6 45.19C343.16 44.79 342.54 44.59 341.74 44.59C340.94 44.59 340.16 44.71 339.4 44.95C338.64 45.17 337.88 45.45 337.12 45.79L335.65 42.76C336.53 42.3 337.5 41.94 338.56 41.68C339.64 41.42 340.76 41.29 341.92 41.29ZM342.55 50.47C341.11 50.51 340.11 50.77 339.55 51.25C338.99 51.73 338.71 52.36 338.71 53.14C338.71 53.82 338.91 54.31 339.31 54.61C339.71 54.89 340.23 55.03 340.87 55.03C341.83 55.03 342.64 54.75 343.3 54.19C343.96 53.61 344.29 52.8 344.29 51.76V50.41L342.55 50.47ZM357.236 47.62C357.236 48.32 357.406 48.85 357.746 49.21C358.106 49.57 358.596 49.75 359.216 49.75C360.076 49.75 360.876 49.66 361.616 49.48C362.356 49.28 363.096 49.02 363.836 48.7V41.62H368.306V58H363.836V51.49C363.136 51.87 362.336 52.22 361.436 52.54C360.536 52.84 359.516 52.99 358.376 52.99C356.676 52.99 355.316 52.55 354.296 51.67C353.276 50.79 352.766 49.47 352.766 47.71V41.62H357.236V47.62ZM377.463 41.62V47.92H383.703V41.62H388.173V58H383.703V51.25H377.463V58H372.993V41.62H377.463ZM399.607 41.32C401.127 41.32 402.427 41.61 403.507 42.19C404.607 42.77 405.457 43.61 406.057 44.71C406.657 45.81 406.957 47.16 406.957 48.76V50.92H396.397C396.437 52.18 396.807 53.17 397.507 53.89C398.227 54.61 399.217 54.97 400.477 54.97C401.537 54.97 402.497 54.87 403.357 54.67C404.217 54.45 405.107 54.12 406.027 53.68V57.13C405.227 57.53 404.377 57.82 403.477 58C402.597 58.2 401.527 58.3 400.267 58.3C398.627 58.3 397.177 58 395.917 57.4C394.657 56.78 393.667 55.85 392.947 54.61C392.227 53.37 391.867 51.81 391.867 49.93C391.867 48.01 392.187 46.42 392.827 45.16C393.487 43.88 394.397 42.92 395.557 42.28C396.717 41.64 398.067 41.32 399.607 41.32ZM399.637 44.5C398.777 44.5 398.057 44.78 397.477 45.34C396.917 45.9 396.587 46.77 396.487 47.95H402.757C402.757 47.29 402.637 46.7 402.397 46.18C402.177 45.66 401.837 45.25 401.377 44.95C400.917 44.65 400.337 44.5 399.637 44.5ZM394.357 37.42C394.357 36.72 394.557 36.22 394.957 35.92C395.357 35.6 395.837 35.44 396.397 35.44C396.957 35.44 397.437 35.6 397.837 35.92C398.257 36.22 398.467 36.72 398.467 37.42C398.467 38.08 398.257 38.57 397.837 38.89C397.437 39.21 396.957 39.37 396.397 39.37C395.837 39.37 395.357 39.21 394.957 38.89C394.557 38.57 394.357 38.08 394.357 37.42ZM400.267 37.42C400.267 36.72 400.467 36.22 400.867 35.92C401.267 35.6 401.757 35.44 402.337 35.44C402.897 35.44 403.377 35.6 403.777 35.92C404.197 36.22 404.407 36.72 404.407 37.42C404.407 38.08 404.197 38.57 403.777 38.89C403.377 39.21 402.897 39.37 402.337 39.37C401.777 39.37 401.287 39.21 400.867 38.89C400.467 38.57 400.267 38.08 400.267 37.42ZM431.221 41.62V58H427.051V49.96C427.051 49.16 427.061 48.38 427.081 47.62C427.121 46.86 427.171 46.16 427.231 45.52H427.141L422.611 58H419.251L414.661 45.49H414.541C414.621 46.15 414.671 46.86 414.691 47.62C414.731 48.36 414.751 49.18 414.751 50.08V58H410.581V41.62H416.911L420.991 52.72L425.131 41.62H431.221ZM437.604 53.14C437.204 53.14 436.854 53 436.554 52.72C436.274 52.42 436.134 52.07 436.134 51.67V39.43C436.134 39.03 436.274 38.68 436.554 38.38C436.854 38.08 437.204 37.93 437.604 37.93C438.024 37.93 438.374 38.08 438.654 38.38C438.934 38.68 439.074 39.03 439.074 39.43V51.67C439.074 52.07 438.934 52.42 438.654 52.72C438.374 53 438.024 53.14 437.604 53.14ZM437.364 58.18C436.904 58.18 436.524 58.02 436.224 57.7C435.944 57.38 435.804 56.98 435.804 56.5C435.804 56 435.984 55.55 436.344 55.15C436.704 54.75 437.114 54.55 437.574 54.55C438.034 54.55 438.404 54.72 438.684 55.06C438.984 55.38 439.134 55.77 439.134 56.23C439.134 56.77 438.954 57.23 438.594 57.61C438.234 57.99 437.824 58.18 437.364 58.18Z" fill="#6E2181"/>
</svg>
