<?xml version="1.0" encoding="UTF-8" standalone="no"?><svg xmlns:svg="http://www.w3.org/2000/svg" xmlns="http://www.w3.org/2000/svg" xmlns:xlink="http://www.w3.org/1999/xlink" version="1.0" width="213px" height="25px" viewBox="0 0 128 15" xml:space="preserve"><g><path fill="#a42fc1" d="M-11.374,3.6A3.813,3.813,0,0,1-7.621,7.47a3.813,3.813,0,0,1-3.753,3.87,3.813,3.813,0,0,1-3.753-3.87A3.813,3.813,0,0,1-11.374,3.6Zm15.013,0A3.813,3.813,0,0,1,7.392,7.47a3.813,3.813,0,0,1-3.753,3.87A3.813,3.813,0,0,1-.115,7.47,3.813,3.813,0,0,1,3.639,3.6Zm15.013,0A3.813,3.813,0,0,1,22.4,7.47a3.755,3.755,0,1,1-7.506,0A3.813,3.813,0,0,1,18.651,3.6Zm15.013,0a3.813,3.813,0,0,1,3.753,3.87,3.755,3.755,0,1,1-7.506,0A3.813,3.813,0,0,1,33.664,3.6Zm15.013,0A3.813,3.813,0,0,1,52.43,7.47a3.755,3.755,0,1,1-7.506,0A3.813,3.813,0,0,1,48.676,3.6Zm15.013,0a3.813,3.813,0,0,1,3.753,3.87,3.755,3.755,0,1,1-7.506,0A3.813,3.813,0,0,1,63.689,3.6ZM78.7,3.6a3.813,3.813,0,0,1,3.753,3.87,3.755,3.755,0,1,1-7.506,0A3.813,3.813,0,0,1,78.7,3.6Zm15.013,0a3.813,3.813,0,0,1,3.753,3.87,3.755,3.755,0,1,1-7.506,0A3.813,3.813,0,0,1,93.714,3.6Zm15.013,0a3.813,3.813,0,0,1,3.753,3.87,3.755,3.755,0,1,1-7.506,0A3.813,3.813,0,0,1,108.727,3.6Zm15.012,0a3.814,3.814,0,0,1,3.754,3.87,3.755,3.755,0,1,1-7.507,0A3.814,3.814,0,0,1,123.739,3.6Z"/><animateTransform attributeName="transform" type="translate" from="0 0" to="15 0" dur="900ms" repeatCount="indefinite"/></g></svg>
